<?xml version="1.0" standalone="no"?>
<!DOCTYPE svg PUBLIC "-//W3C//DTD SVG 20010904//EN"
 "http://www.w3.org/TR/2001/REC-SVG-20010904/DTD/svg10.dtd">
<svg version="1.0" xmlns="http://www.w3.org/2000/svg"
 width="4000.000000pt" height="4000.000000pt" viewBox="0 0 4000.000000 4000.000000"
 preserveAspectRatio="xMidYMid meet">

<g transform="translate(0.000000,4000.000000) scale(0.100000,-0.100000)"
fill="#000000" stroke="none">
<path d="M38210 34267 c-96 -21 -180 -90 -222 -182 -35 -76 -32 -190 5 -267
115 -235 459 -236 573 -2 117 239 -95 508 -356 451z"/>
<path d="M36623 34191 c-68 -23 -116 -61 -158 -124 -108 -164 -45 -382 134
-466 46 -21 70 -26 131 -25 92 1 150 24 219 89 68 63 95 129 96 226 0 67 -4
84 -35 145 -74 144 -233 208 -387 155z"/>
<path d="M35259 33804 c-65 -19 -145 -94 -179 -165 l-27 -57 -18 35 c-29 53
-109 119 -167 139 -29 9 -82 17 -118 17 -267 0 -407 -324 -228 -527 85 -98
228 -132 352 -86 73 28 144 95 171 162 11 27 22 48 25 48 3 0 16 -19 30 -41
77 -126 256 -179 391 -117 77 35 124 80 158 151 36 75 44 131 30 200 -33 156
-158 258 -312 256 -34 0 -83 -7 -108 -15z"/>
<path d="M33603 33722 c-200 -72 -276 -309 -154 -485 83 -122 250 -168 388
-107 63 28 136 101 164 164 50 112 22 263 -65 349 -86 86 -222 118 -333 79z"/>
<path d="M31740 33377 c-228 -64 -311 -350 -151 -520 25 -27 68 -61 96 -75 69
-37 195 -38 270 -4 190 87 246 340 110 500 -72 83 -220 129 -325 99z"/>
<path d="M32721 33320 c-96 -20 -195 -109 -228 -203 -25 -75 -21 -172 9 -239
91 -196 341 -249 502 -106 127 111 142 303 36 437 -69 88 -205 135 -319 111z"/>
<path d="M36506 32995 c-126 -52 -198 -162 -197 -301 1 -122 76 -235 189 -286
67 -30 190 -31 253 -2 113 53 179 150 187 275 6 109 -15 168 -87 240 -98 98
-223 125 -345 74z"/>
<path d="M29884 32969 c-70 -27 -134 -85 -169 -155 -26 -51 -30 -70 -30 -139
1 -104 27 -167 101 -234 l53 -49 -35 -68 c-29 -58 -35 -80 -35 -136 -1 -84 22
-153 66 -205 l34 -40 -57 0 c-77 1 -123 -16 -171 -64 -39 -39 -71 -110 -71
-156 0 -51 24 -114 58 -154 137 -159 401 -62 402 147 0 38 -8 67 -29 107 l-29
55 31 -9 c50 -14 139 -11 193 8 34 11 67 35 110 77 71 72 95 129 95 232 0 55
-5 79 -31 130 -28 57 -72 107 -115 132 -15 8 -14 13 9 47 87 128 65 313 -51
414 -88 78 -220 102 -329 60z"/>
<path d="M34903 32899 c-97 -19 -179 -83 -223 -174 -37 -75 -35 -189 3 -267
52 -106 166 -178 282 -178 114 0 230 72 280 175 88 179 -8 390 -201 440 -64
16 -78 17 -141 4z"/>
<path d="M30867 32880 c-63 -16 -112 -47 -160 -100 -60 -66 -81 -130 -75 -224
8 -116 65 -203 166 -253 48 -24 70 -28 137 -28 67 0 89 4 137 28 67 33 112 80
146 155 21 47 24 64 20 136 -5 93 -27 144 -85 202 -69 69 -195 106 -286 84z"/>
<path d="M37781 32689 c-246 -46 -341 -359 -164 -536 66 -66 123 -88 228 -88
78 0 97 4 141 27 65 34 137 114 158 175 22 64 20 161 -3 223 -55 144 -206 227
-360 199z"/>
<path d="M33135 32621 c-138 -36 -235 -167 -222 -301 17 -192 201 -315 380
-254 64 22 139 91 168 156 62 141 -4 318 -140 377 -55 23 -142 34 -186 22z"/>
<path d="M28227 32559 c-173 -26 -281 -228 -209 -392 28 -63 100 -132 162
-152 42 -14 53 -23 79 -69 57 -102 157 -159 277 -159 178 0 315 139 315 318 0
159 -122 298 -274 313 -43 4 -54 11 -90 49 -69 75 -158 107 -260 92z"/>
<path d="M29135 32441 c-157 -41 -245 -192 -201 -345 20 -67 78 -136 141 -168
61 -32 160 -36 220 -9 72 32 107 62 139 121 61 111 40 247 -50 330 -25 23 -60
48 -79 56 -42 17 -131 25 -170 15z"/>
<path d="M35530 32422 c-65 -24 -160 -122 -184 -190 -25 -72 -19 -179 13 -246
94 -192 341 -239 504 -97 20 18 51 62 68 97 105 213 -49 456 -289 453 -37 0
-87 -8 -112 -17z"/>
<path d="M31375 32278 c-41 -15 -169 -112 -195 -148 -64 -90 -81 -206 -46
-310 26 -76 111 -160 186 -185 162 -54 319 9 397 158 60 114 25 313 -74 419
-66 70 -178 98 -268 66z"/>
<path d="M26900 32209 c-24 -5 -66 -22 -93 -39 -42 -26 -53 -29 -87 -21 -119
27 -252 -49 -291 -166 -15 -45 -7 -149 14 -190 46 -87 133 -136 235 -132 61 2
72 0 117 -29 61 -40 103 -52 177 -52 119 0 232 71 285 178 37 77 40 191 5 267
-63 138 -210 213 -362 184z"/>
<path d="M27504 32026 c-167 -54 -222 -268 -101 -394 115 -120 300 -98 384 46
24 39 28 58 28 117 -1 75 -16 117 -64 168 -57 62 -166 90 -247 63z"/>
<path d="M25366 31904 c-35 -11 -66 -32 -107 -73 -49 -49 -65 -59 -103 -64
-120 -17 -196 -100 -196 -214 1 -161 172 -263 314 -188 46 24 48 24 79 8 47
-25 160 -23 218 3 174 80 225 300 103 443 -72 84 -201 119 -308 85z"/>
<path d="M34774 31734 c-54 -19 -118 -74 -151 -131 -39 -68 -44 -172 -11 -244
14 -30 37 -68 52 -86 36 -42 119 -82 182 -86 266 -19 408 290 221 481 -72 74
-193 101 -293 66z"/>
<path d="M33255 31659 c-124 -28 -205 -128 -205 -254 0 -175 165 -300 332
-251 174 50 245 264 135 407 -59 77 -171 119 -262 98z"/>
<path d="M26033 31650 c-88 -20 -150 -92 -160 -183 -5 -48 -2 -64 22 -112 40
-83 86 -110 185 -110 68 0 81 3 118 29 74 51 109 153 80 237 -34 101 -142 162
-245 139z"/>
<path d="M36235 31641 c-52 -13 -107 -44 -142 -78 -119 -119 -117 -312 4 -424
60 -55 119 -80 193 -80 217 -1 358 198 283 401 -22 61 -92 133 -155 160 -56
24 -137 33 -183 21z"/>
<path d="M23977 31599 c-21 -5 -50 -15 -66 -23 -39 -21 -97 -87 -110 -128 -9
-28 -19 -37 -51 -47 -82 -24 -130 -90 -130 -175 0 -57 11 -85 50 -130 l32 -36
-16 -40 c-9 -22 -16 -66 -16 -98 0 -174 175 -307 342 -258 110 32 179 109 200
224 9 50 8 68 -6 113 -10 30 -31 71 -47 92 -17 20 -26 37 -21 37 4 0 28 17 52
37 134 115 115 323 -36 405 -55 29 -121 39 -177 27z"/>
<path d="M28192 31598 c-82 -18 -152 -110 -152 -201 0 -99 94 -187 200 -187
141 0 238 140 184 268 -38 93 -132 142 -232 120z"/>
<path d="M31657 31479 c-55 -16 -132 -90 -151 -146 -32 -94 -15 -173 51 -244
67 -72 158 -96 244 -65 l37 13 5 -64 c9 -114 73 -208 179 -265 36 -19 58 -23
138 -23 84 0 101 3 146 27 60 32 118 93 148 157 33 71 30 188 -7 263 -55 112
-163 180 -287 180 -58 0 -154 -25 -165 -43 -12 -18 -31 -9 -33 16 -11 134
-166 232 -305 194z"/>
<path d="M37090 31431 c-94 -29 -175 -104 -210 -197 -59 -157 20 -341 175
-405 46 -19 58 -30 76 -66 11 -23 42 -62 68 -85 154 -138 395 -84 476 107 21
50 24 145 6 208 -17 60 -95 148 -152 173 -21 10 -39 23 -39 29 0 7 -14 40 -31
73 -54 109 -160 173 -282 171 -34 0 -73 -4 -87 -8z"/>
<path d="M37910 31288 c-76 -29 -161 -115 -185 -187 -26 -80 -18 -190 20 -260
83 -151 267 -211 419 -135 147 73 213 236 161 394 -25 75 -110 160 -188 189
-74 27 -155 27 -227 -1z"/>
<path d="M22670 31290 c-94 -17 -180 -109 -180 -194 0 -17 -10 -31 -30 -43
-44 -26 -74 -93 -65 -146 4 -23 9 -67 11 -97 6 -77 28 -130 73 -174 84 -82
217 -93 310 -26 81 59 120 176 88 268 -15 42 -14 45 14 99 19 37 29 70 29 99
0 133 -121 236 -250 214z"/>
<path d="M24624 31286 c-17 -8 -44 -30 -59 -50 -102 -134 15 -319 180 -284 90
20 140 91 133 188 -7 99 -74 160 -175 160 -26 -1 -62 -7 -79 -14z"/>
<path d="M26714 31261 c-42 -19 -84 -63 -84 -87 0 -11 -18 -14 -72 -14 -127 0
-238 -72 -292 -189 -33 -71 -30 -188 7 -263 35 -72 111 -141 178 -163 202 -67
403 61 425 272 4 32 2 75 -4 95 -10 36 -8 39 28 76 69 69 75 159 14 232 -50
59 -126 74 -200 41z"/>
<path d="M25154 31250 c-71 -28 -128 -81 -161 -148 -24 -49 -28 -69 -28 -142
0 -73 4 -92 27 -136 35 -66 106 -128 171 -150 62 -21 158 -21 213 0 21 8 59
17 83 19 84 10 137 76 126 157 -3 25 -8 77 -9 116 -6 120 -67 219 -170 271
-70 36 -180 42 -252 13z"/>
<path d="M30110 31249 c-187 -75 -172 -348 22 -400 122 -33 244 48 265 175 13
81 -43 182 -121 217 -44 20 -126 24 -166 8z"/>
<path d="M28632 30999 c-78 -39 -116 -127 -93 -211 22 -75 81 -125 160 -135
140 -16 243 133 181 262 -45 92 -157 130 -248 84z"/>
<path d="M21445 30990 c-67 -14 -117 -64 -136 -132 -6 -23 -21 -50 -34 -60
-57 -44 -83 -166 -52 -241 19 -45 88 -104 137 -117 92 -25 200 22 240 104 13
28 23 69 24 99 1 29 9 63 18 77 24 36 32 102 18 144 -30 93 -121 146 -215 126z"/>
<path d="M23369 30957 c-67 -44 -88 -135 -46 -197 50 -75 117 -96 190 -61 143
69 96 281 -63 281 -32 0 -58 -7 -81 -23z"/>
<path d="M27285 30769 c-44 -12 -92 -67 -103 -117 -24 -106 48 -192 160 -192
l43 0 3 -43 c7 -103 96 -218 198 -256 30 -12 66 -21 80 -21 l25 0 -22 -31
c-27 -38 -29 -107 -5 -144 40 -61 134 -68 187 -16 53 53 44 146 -18 186 l-25
17 41 20 c56 28 135 117 155 174 22 66 20 161 -5 228 -61 165 -263 247 -424
173 -33 -16 -67 -35 -77 -43 -15 -15 -19 -13 -48 20 -43 49 -100 64 -165 45z"/>
<path d="M20332 30713 c-12 -2 -39 -20 -59 -40 -21 -19 -53 -41 -72 -49 -46
-19 -69 -41 -92 -86 -73 -144 68 -299 222 -244 26 9 56 16 68 16 59 0 109 60
98 117 -3 16 3 42 15 65 25 47 21 121 -8 161 -35 49 -104 73 -172 60z"/>
<path d="M24175 30686 c-55 -24 -81 -80 -64 -139 15 -54 52 -82 110 -82 41 0
53 5 80 31 35 36 47 95 27 134 -17 31 -74 70 -102 70 -12 -1 -35 -7 -51 -14z"/>
<path d="M22234 30656 c-30 -30 -34 -40 -34 -86 0 -46 4 -56 35 -87 34 -34 38
-35 91 -31 73 6 105 36 111 105 7 85 -39 133 -129 133 -32 0 -47 -7 -74 -34z"/>
<path d="M33206 30585 c-148 -53 -184 -261 -61 -363 138 -113 345 -16 345 163
0 150 -143 251 -284 200z"/>
<path d="M31804 30550 c-126 -29 -186 -171 -121 -283 30 -51 59 -72 120 -89
140 -37 274 112 223 246 -10 25 -26 56 -36 69 -36 46 -122 72 -186 57z"/>
<path d="M25991 30522 c-40 -21 -71 -73 -71 -117 0 -58 56 -121 110 -125 84
-7 130 22 150 94 11 39 10 49 -6 83 -37 74 -114 102 -183 65z"/>
<path d="M34625 30530 c-85 -20 -157 -91 -176 -175 -45 -201 173 -357 347
-249 125 77 148 240 51 351 -53 61 -146 91 -222 73z"/>
<path d="M19320 30439 c-27 -17 -51 -23 -103 -23 -67 -1 -69 -2 -108 -43 -38
-41 -44 -61 -39 -123 11 -124 176 -173 257 -76 21 25 38 35 69 38 38 5 40 4
37 -16 -3 -12 5 -33 17 -49 46 -58 150 -15 136 56 -7 35 -38 67 -65 67 -14 0
-17 10 -16 60 0 54 -3 63 -31 91 -43 42 -104 49 -154 18z"/>
<path d="M30350 30428 c-102 -52 -120 -180 -38 -265 34 -35 72 -48 131 -45
146 8 205 187 95 289 -51 48 -119 55 -188 21z"/>
<path d="M21280 30428 c-60 -22 -84 -81 -56 -136 19 -37 44 -52 86 -52 42 0
67 15 86 52 39 76 -36 165 -116 136z"/>
<path d="M23053 30416 c-61 -53 -21 -156 62 -156 21 0 44 9 62 24 61 53 21
156 -62 156 -21 0 -44 -9 -62 -24z"/>
<path d="M24834 30310 c-56 -22 -83 -109 -48 -158 19 -27 65 -52 96 -52 38 0
85 35 98 74 30 91 -58 172 -146 136z"/>
<path d="M28993 30294 c-74 -37 -99 -152 -47 -214 52 -61 108 -74 179 -40 50
24 78 69 78 126 0 108 -112 176 -210 128z"/>
<path d="M35845 30276 c-121 -57 -172 -176 -133 -310 18 -60 92 -131 159 -150
65 -20 82 -20 145 -1 181 54 236 285 99 418 -70 68 -180 86 -270 43z"/>
<path d="M18461 30216 c-88 -49 -50 -186 52 -186 41 0 85 36 93 75 16 88 -68
153 -145 111z"/>
<path d="M22086 30199 c-30 -23 -36 -78 -11 -99 12 -10 5 -17 -45 -42 -271
-135 -172 -542 132 -541 124 1 224 72 269 192 60 159 -46 345 -214 376 -32 6
-35 10 -27 25 16 31 11 60 -15 85 -30 30 -54 31 -89 4z"/>
<path d="M18186 30180 c-110 -97 12 -263 143 -195 30 15 61 69 61 105 0 36
-31 90 -61 105 -48 25 -104 19 -143 -15z"/>
<path d="M20403 30203 c-29 -5 -53 -39 -53 -73 0 -63 84 -94 128 -47 52 56 2
134 -75 120z"/>
<path d="M37853 30159 c-63 -12 -116 -43 -165 -98 -106 -118 -94 -303 28 -410
177 -156 460 -44 481 190 18 198 -151 355 -344 318z"/>
<path d="M20985 30151 c-150 -39 -233 -181 -191 -326 31 -105 140 -185 252
-185 61 0 140 38 184 87 43 49 64 106 75 206 l6 57 -65 65 c-35 36 -80 72 -99
80 -43 18 -124 26 -162 16z"/>
<path d="M17625 30140 c-3 -5 -1 -10 4 -10 6 0 11 5 11 10 0 6 -2 10 -4 10 -3
0 -8 -4 -11 -10z"/>
<path d="M19844 30106 c-53 -24 -94 -68 -114 -121 l-11 -29 -12 24 c-25 49
-99 30 -99 -25 0 -46 31 -61 91 -44 9 3 15 -8 17 -35 10 -86 79 -168 163 -193
88 -25 177 1 238 71 41 46 56 96 51 166 -12 162 -174 256 -324 186z"/>
<path d="M23790 30113 c-59 -21 -78 -91 -37 -138 48 -57 147 -20 147 55 0 51
-64 99 -110 83z"/>
<path d="M18700 30045 c-18 -21 -15 -62 4 -84 15 -17 16 -25 5 -59 -36 -123
62 -252 192 -252 141 1 237 141 183 268 -18 44 -58 88 -99 109 -34 18 -132 21
-162 4 -16 -8 -24 -6 -38 9 -21 24 -67 26 -85 5z"/>
<path d="M17733 30022 c-55 -9 -72 -96 -26 -132 66 -52 153 25 113 100 -11 21
-55 37 -87 32z"/>
<path d="M17384 30011 c-56 -24 -73 -113 -30 -156 32 -32 69 -40 107 -25 90
38 75 173 -21 185 -19 3 -45 1 -56 -4z"/>
<path d="M26511 29986 c-83 -47 -60 -170 35 -183 36 -4 45 -1 72 23 30 28 36
44 33 91 -3 56 -89 99 -140 69z"/>
<path d="M15475 29980 c-3 -5 -1 -10 4 -10 6 0 11 5 11 10 0 6 -2 10 -4 10 -3
0 -8 -4 -11 -10z"/>
<path d="M28402 29932 c-66 -24 -118 -65 -159 -126 -43 -63 -56 -116 -51 -201
8 -116 71 -211 176 -262 48 -24 69 -28 137 -27 105 0 168 27 234 100 114 124
114 304 0 428 -85 94 -221 129 -337 88z"/>
<path d="M22822 29924 c-28 -19 -30 -74 -4 -97 27 -25 78 -22 96 5 22 32 20
55 -9 83 -28 29 -51 31 -83 9z"/>
<path d="M16487 29916 c-8 -20 20 -43 35 -28 14 14 3 42 -16 42 -7 0 -16 -6
-19 -14z"/>
<path d="M17850 29907 c-51 -27 -90 -90 -90 -147 0 -87 83 -170 170 -170 90 0
170 83 170 176 0 28 5 44 15 48 20 7 20 62 -1 70 -8 3 -24 1 -34 -4 -13 -7
-21 -7 -25 0 -13 21 -85 50 -123 50 -21 0 -58 -10 -82 -23z"/>
<path d="M23133 29849 c-193 -76 -255 -336 -118 -497 52 -60 147 -104 227
-105 97 -1 162 26 230 93 48 48 60 68 78 129 19 62 21 79 12 130 -20 113 -78
193 -175 243 -62 32 -184 35 -254 7z"/>
<path d="M20495 29846 c-24 -17 -15 -50 14 -54 30 -5 45 10 37 36 -9 26 -30
34 -51 18z"/>
<path d="M17073 29827 c-11 -14 -35 -27 -57 -31 -76 -14 -127 -101 -106 -178
12 -41 70 -97 103 -99 49 -4 82 2 110 19 58 33 84 125 53 181 -8 15 -12 40 -8
64 4 31 1 43 -13 54 -28 20 -61 16 -82 -10z"/>
<path d="M25410 29837 c-35 -18 -50 -52 -39 -91 11 -37 34 -56 70 -56 81 0
110 108 38 145 -34 18 -37 18 -69 2z"/>
<path d="M16645 29815 c-14 -13 -25 -36 -25 -50 0 -33 41 -75 73 -75 40 0 77
36 77 76 0 69 -76 99 -125 49z"/>
<path d="M36880 29780 c-70 -24 -141 -97 -160 -164 -49 -174 74 -336 254 -336
132 0 256 126 256 260 0 103 -80 211 -179 243 -67 22 -102 21 -171 -3z"/>
<path d="M17587 29767 c-3 -8 -2 -20 3 -27 11 -18 42 -4 38 17 -4 22 -34 29
-41 10z"/>
<path d="M24402 29694 c-25 -17 -31 -71 -10 -92 18 -18 63 -14 81 6 46 50 -16
125 -71 86z"/>
<path d="M16569 29684 c-17 -21 0 -48 34 -52 21 -3 28 2 33 22 3 14 3 30 -1
35 -10 16 -51 13 -66 -5z"/>
<path d="M16047 29672 c-20 -22 -22 -63 -5 -80 20 -20 65 -14 82 10 21 30 20
44 -4 68 -25 25 -52 26 -73 2z"/>
<path d="M16224 29663 c-12 -2 -34 -18 -50 -34 -24 -25 -29 -39 -29 -79 0 -42
5 -54 31 -81 62 -61 157 -42 191 39 13 32 14 42 2 77 -22 63 -76 92 -145 78z"/>
<path d="M14335 29650 c-8 -14 3 -30 21 -30 8 0 14 9 14 20 0 21 -24 28 -35
10z"/>
<path d="M21284 29635 c-4 -9 0 -23 8 -31 20 -20 50 -7 46 20 -4 26 -45 35
-54 11z"/>
<path d="M30525 29616 c-56 -25 -95 -85 -95 -144 0 -40 41 -103 80 -123 102
-55 228 26 217 140 -10 99 -117 167 -202 127z"/>
<path d="M31825 29618 c-40 -14 -84 -56 -101 -95 -20 -47 -17 -94 10 -145 l24
-46 -34 -33 c-153 -148 -111 -411 80 -509 60 -30 77 -35 144 -35 63 0 87 5
132 26 241 115 252 443 18 569 -52 28 -65 39 -58 50 13 20 12 82 -1 117 -15
42 -68 92 -109 103 -43 12 -66 12 -105 -2z"/>
<path d="M15333 29604 c-8 -21 13 -42 28 -27 13 13 5 43 -11 43 -6 0 -13 -7
-17 -16z"/>
<path d="M29289 29580 c-66 -18 -99 -59 -99 -125 0 -97 102 -155 190 -110 71
37 85 149 26 204 -28 27 -81 40 -117 31z"/>
<path d="M15545 29536 c-52 -30 -70 -61 -61 -109 8 -40 33 -63 83 -73 24 -5
37 0 62 23 29 26 36 47 32 96 -1 14 -63 88 -73 87 -2 -1 -21 -11 -43 -24z"/>
<path d="M33100 29533 c-42 -21 -60 -38 -77 -72 -45 -87 -19 -197 60 -249 58
-39 146 -38 205 1 115 76 107 264 -14 322 -65 31 -112 30 -174 -2z"/>
<path d="M28084 29513 c-31 -6 -74 -55 -78 -89 -9 -71 52 -132 122 -120 118
19 120 191 2 208 -14 2 -35 3 -46 1z"/>
<path d="M22717 29474 c-12 -12 -8 -42 6 -47 21 -8 39 8 35 29 -3 19 -29 30
-41 18z"/>
<path d="M26939 29425 c-50 -28 -61 -102 -19 -140 9 -9 34 -18 53 -22 31 -5
40 -1 68 26 27 28 31 37 26 68 -11 66 -74 99 -128 68z"/>
<path d="M34304 29426 c-89 -29 -167 -103 -205 -196 -8 -20 -14 -68 -14 -110
0 -181 134 -315 315 -315 127 0 227 62 287 178 24 45 28 63 27 137 0 65 -5 96
-22 132 -27 61 -100 134 -160 160 -58 26 -171 33 -228 14z"/>
<path d="M22080 29420 c0 -5 5 -10 10 -10 6 0 10 5 10 10 0 6 -4 10 -10 10 -5
0 -10 -4 -10 -10z"/>
<path d="M14941 29394 c-27 -35 -26 -59 4 -89 63 -64 159 19 104 90 -28 35
-80 35 -108 -1z"/>
<path d="M24140 29395 c-122 -40 -210 -160 -213 -291 -2 -102 23 -166 92 -235
67 -66 132 -92 232 -92 117 0 226 70 280 179 20 41 24 64 24 139 0 75 -4 98
-24 135 -32 62 -86 117 -146 148 -62 31 -176 40 -245 17z"/>
<path d="M25886 29328 c-34 -48 -4 -108 52 -108 63 0 90 88 38 122 -24 16 -75
8 -90 -14z"/>
<path d="M14484 29296 c-15 -24 -15 -28 0 -51 20 -31 56 -33 82 -4 17 19 17
23 3 47 -21 38 -62 41 -85 8z"/>
<path d="M24956 29264 c-19 -18 -21 -55 -4 -72 17 -17 54 -15 72 4 21 21 20
40 -4 64 -24 24 -43 25 -64 4z"/>
<path d="M13202 29229 c2 -6 8 -10 13 -10 5 0 11 4 13 10 2 6 -4 11 -13 11 -9
0 -15 -5 -13 -11z"/>
<path d="M14144 29226 c-11 -29 1 -51 26 -51 19 0 26 6 28 24 5 35 -42 58 -54
27z"/>
<path d="M12345 29180 c-3 -5 1 -10 10 -10 9 0 13 5 10 10 -3 6 -8 10 -10 10
-2 0 -7 -4 -10 -10z"/>
<path d="M16475 29176 c-71 -31 -108 -113 -85 -189 35 -119 188 -153 270 -61
111 127 -31 317 -185 250z"/>
<path d="M15683 29150 c-97 -44 -97 -187 0 -233 43 -21 68 -21 110 -3 48 20
69 50 75 104 10 109 -86 177 -185 132z"/>
<path d="M17312 29144 c-119 -72 -113 -256 11 -321 42 -21 125 -21 171 2 77
37 118 147 85 232 -38 101 -171 145 -267 87z"/>
<path d="M23375 29150 c-8 -14 3 -30 21 -30 8 0 14 9 14 20 0 21 -24 28 -35
10z"/>
<path d="M14961 29104 c-13 -9 -29 -31 -37 -50 -37 -89 49 -178 137 -141 46
19 61 39 66 92 5 41 3 47 -30 80 -28 28 -43 35 -74 35 -21 0 -49 -7 -62 -16z"/>
<path d="M18285 29090 c-120 -26 -196 -148 -161 -262 20 -67 49 -103 108 -132
65 -33 118 -33 185 -1 135 62 160 241 49 343 -29 27 -57 43 -83 47 -21 3 -45
7 -53 9 -8 1 -28 -1 -45 -4z"/>
<path d="M14363 29059 c-30 -11 -53 -48 -53 -85 0 -45 51 -88 94 -80 64 12 97
89 59 135 -22 26 -71 41 -100 30z"/>
<path d="M35515 29041 c-55 -25 -109 -87 -125 -145 -30 -109 38 -230 147 -262
92 -27 161 -7 226 65 94 105 64 267 -62 333 -63 33 -127 36 -186 9z"/>
<path d="M13820 28990 c-41 -41 -14 -110 43 -110 32 0 67 32 67 60 0 12 -11
32 -25 45 -29 30 -58 32 -85 5z"/>
<path d="M13413 28949 c-17 -6 -23 -16 -23 -38 0 -54 73 -68 86 -16 10 40 -24
69 -63 54z"/>
<path d="M13097 28909 c-22 -13 -22 -36 1 -47 23 -12 42 -4 42 18 0 26 -22 41
-43 29z"/>
<path d="M19175 28906 c-112 -49 -169 -178 -133 -300 16 -54 90 -128 144 -144
96 -28 189 -6 251 59 112 118 75 312 -72 380 -47 22 -145 25 -190 5z"/>
<path d="M37518 28897 c-62 -20 -121 -69 -148 -123 -14 -27 -26 -51 -27 -53
-1 -2 -23 10 -48 27 -165 109 -400 32 -461 -151 -69 -207 75 -410 291 -410
141 -1 253 87 299 234 4 15 10 14 52 -7 26 -13 56 -24 66 -24 24 0 23 -17 -2
-25 -31 -10 -97 -92 -114 -142 -36 -105 -11 -209 68 -288 173 -172 468 -52
467 189 0 104 -36 179 -109 230 -32 22 -54 31 -120 52 -8 2 3 17 29 37 65 49
94 114 94 207 -1 57 -6 85 -22 116 -24 45 -75 94 -125 120 -41 21 -142 27
-190 11z"/>
<path d="M27310 28830 c-34 -34 -24 -71 23 -89 24 -9 31 -8 53 14 18 19 23 31
19 48 -15 47 -61 61 -95 27z"/>
<path d="M28346 28831 c-28 -30 -24 -80 8 -108 33 -28 56 -29 90 -2 33 26 36
79 6 109 -26 26 -81 26 -104 1z"/>
<path d="M26352 28828 c-18 -18 -15 -56 6 -66 9 -6 27 -6 40 -1 38 14 24 79
-18 79 -9 0 -21 -5 -28 -12z"/>
<path d="M29480 28833 c-78 -29 -75 -146 3 -172 53 -18 104 10 122 67 19 64
-59 129 -125 105z"/>
<path d="M25472 28817 c-9 -10 -8 -18 2 -32 18 -25 48 -13 44 17 -4 27 -30 35
-46 15z"/>
<path d="M24692 28811 c2 -7 7 -12 11 -12 12 1 9 15 -3 20 -7 2 -11 -2 -8 -8z"/>
<path d="M30642 28789 c-62 -18 -92 -109 -55 -166 42 -63 145 -63 183 0 57 93
-23 196 -128 166z"/>
<path d="M12060 28745 c0 -22 4 -26 23 -23 14 2 22 10 22 23 0 13 -8 21 -22
23 -19 3 -23 -1 -23 -23z"/>
<path d="M31785 28667 c-86 -86 -29 -217 93 -217 93 0 153 112 103 193 -25 41
-58 57 -117 57 -39 0 -51 -5 -79 -33z"/>
<path d="M24969 28629 c-94 -14 -184 -83 -230 -175 -34 -70 -35 -207 -1 -276
52 -106 150 -170 269 -176 121 -7 220 41 282 135 108 162 50 379 -122 462 -67
32 -125 41 -198 30z"/>
<path d="M20124 28610 c-60 -19 -126 -73 -158 -130 -27 -47 -31 -65 -31 -125
1 -124 72 -216 192 -251 121 -35 260 34 310 154 21 50 18 153 -5 205 -24 51
-84 111 -134 131 -48 20 -135 28 -174 16z"/>
<path d="M33000 28531 c-109 -57 -107 -212 3 -261 172 -76 294 172 127 258
-54 27 -84 28 -130 3z"/>
<path d="M28707 28530 c-187 -47 -294 -247 -226 -425 30 -80 104 -154 182
-183 209 -79 430 68 430 286 0 120 -38 198 -131 269 -66 50 -175 73 -255 53z"/>
<path d="M36475 28501 c-85 -39 -134 -115 -135 -208 0 -89 46 -163 125 -199
96 -45 196 -25 267 54 81 90 77 212 -12 303 -67 69 -162 88 -245 50z"/>
<path d="M12018 28499 c-26 -15 -23 -58 5 -68 12 -5 30 -5 40 1 23 12 22 55
-2 68 -23 12 -22 12 -43 -1z"/>
<path d="M12297 28488 c-35 -12 -45 -49 -23 -83 20 -30 65 -34 89 -7 43 47 -4
111 -66 90z"/>
<path d="M12674 28480 c-28 -11 -54 -48 -54 -78 0 -33 43 -72 78 -72 67 0 103
75 60 124 -26 30 -52 38 -84 26z"/>
<path d="M13135 28461 c-37 -16 -57 -48 -57 -92 1 -75 74 -119 140 -85 109 57
31 223 -83 177z"/>
<path d="M13693 28429 c-125 -36 -93 -234 38 -234 72 0 122 48 122 117 0 53
-20 86 -65 109 -41 21 -48 21 -95 8z"/>
<path d="M25953 28403 c-21 -7 -15 -33 7 -33 11 0 20 6 20 14 0 18 -11 25 -27
19z"/>
<path d="M14313 28361 c-79 -37 -108 -134 -62 -208 53 -85 188 -84 245 2 25
39 24 116 -2 151 -49 67 -113 86 -181 55z"/>
<path d="M26754 28336 c-10 -26 4 -48 28 -44 17 2 23 10 23 28 0 18 -6 26 -23
28 -13 2 -25 -3 -28 -12z"/>
<path d="M27646 28281 c-10 -11 -16 -28 -14 -38 5 -25 47 -44 70 -32 25 13 24
65 -1 79 -27 14 -35 13 -55 -9z"/>
<path d="M34129 28267 c-37 -24 -79 -97 -79 -137 0 -37 40 -110 73 -134 22
-16 44 -21 92 -21 76 0 109 19 143 86 41 77 19 154 -58 207 -46 31 -124 31
-171 -1z"/>
<path d="M14990 28248 c-58 -40 -75 -72 -75 -143 0 -71 17 -103 75 -142 63
-44 168 -24 221 40 42 52 42 152 0 204 -53 64 -158 84 -221 41z"/>
<path d="M10961 28211 c-15 -10 -8 -41 9 -41 15 0 25 29 14 40 -5 5 -15 5 -23
1z"/>
<path d="M29622 28117 c-29 -31 -28 -72 3 -102 48 -48 125 -16 125 51 0 67
-83 100 -128 51z"/>
<path d="M10236 28121 c-4 -5 -2 -12 3 -15 5 -4 12 -2 15 3 4 5 2 12 -3 15 -5
4 -12 2 -15 -3z"/>
<path d="M20995 28121 c-84 -22 -168 -92 -201 -168 -25 -58 -23 -168 3 -225
97 -211 396 -223 506 -19 98 179 -20 397 -223 415 -30 3 -68 1 -85 -3z"/>
<path d="M15767 28095 c-105 -37 -155 -158 -108 -261 53 -117 222 -146 307
-52 53 57 69 143 40 211 -25 62 -113 118 -181 117 -11 -1 -37 -7 -58 -15z"/>
<path d="M35411 28053 c-41 -14 -126 -87 -147 -124 -5 -9 -30 -25 -55 -36
-168 -74 -130 -320 51 -336 28 -2 63 -15 92 -34 200 -128 453 -4 466 229 6 92
-17 154 -79 223 -81 88 -211 119 -328 78z"/>
<path d="M30697 28009 c-11 -6 -25 -26 -33 -45 -12 -29 -12 -39 0 -68 26 -64
97 -76 147 -27 37 37 38 79 3 120 -20 24 -34 31 -62 31 -21 0 -45 -5 -55 -11z"/>
<path d="M10946 27974 c-20 -19 -20 -29 0 -48 12 -12 20 -13 35 -6 21 12 25
40 7 58 -16 16 -23 15 -42 -4z"/>
<path d="M11167 27892 c-36 -39 -12 -86 40 -80 20 2 30 11 38 32 8 24 6 31
-14 47 -29 24 -43 24 -64 1z"/>
<path d="M27146 27881 c-4 -5 -2 -12 3 -15 5 -4 12 -2 15 3 4 5 2 12 -3 15 -5
4 -12 2 -15 -3z"/>
<path d="M31793 27844 c-32 -16 -66 -72 -59 -96 2 -7 7 -26 10 -41 8 -34 59
-67 105 -67 50 0 101 54 101 109 0 81 -84 132 -157 95z"/>
<path d="M16519 27830 c-124 -66 -156 -224 -66 -327 86 -98 243 -97 325 2 86
105 52 264 -69 326 -50 25 -141 25 -190 -1z"/>
<path d="M11477 27803 c-33 -38 -22 -96 21 -111 48 -17 92 15 92 67 0 51 -79
81 -113 44z"/>
<path d="M27957 27756 c-9 -22 19 -42 37 -26 19 15 10 40 -14 40 -10 0 -20 -6
-23 -14z"/>
<path d="M11895 27706 c-64 -28 -66 -119 -3 -152 84 -43 168 60 106 130 -29
32 -64 39 -103 22z"/>
<path d="M37150 27684 c-99 -43 -156 -157 -130 -263 42 -176 256 -236 383
-108 115 114 75 309 -75 371 -47 20 -132 20 -178 0z"/>
<path d="M28850 27625 c-19 -23 -8 -50 22 -53 34 -4 50 34 22 55 -23 17 -29
16 -44 -2z"/>
<path d="M32883 27615 c-38 -16 -73 -68 -73 -108 0 -97 102 -157 190 -112 85
44 75 183 -15 221 -42 17 -61 17 -102 -1z"/>
<path d="M9881 27610 c-18 -11 -9 -44 13 -48 10 -2 22 2 26 9 16 25 -14 55
-39 39z"/>
<path d="M12344 27546 c-26 -26 -34 -42 -34 -71 0 -54 53 -105 108 -105 99 0
142 121 67 188 -41 35 -99 30 -141 -12z"/>
<path d="M37660 27541 c-142 -44 -221 -193 -175 -332 59 -176 284 -232 423
-105 74 67 98 205 53 299 -52 108 -190 171 -301 138z"/>
<path d="M9240 27499 c0 -5 5 -7 10 -4 6 3 10 8 10 11 0 2 -4 4 -10 4 -5 0
-10 -5 -10 -11z"/>
<path d="M17292 27454 c-34 -17 -63 -41 -81 -67 -36 -54 -43 -77 -42 -144 1
-129 95 -223 225 -224 200 -3 309 229 180 380 -70 82 -184 104 -282 55z"/>
<path d="M29782 27468 c-16 -16 -15 -53 2 -67 8 -7 27 -11 43 -9 24 3 28 8 31
37 2 20 -2 37 -10 42 -19 13 -52 11 -66 -3z"/>
<path d="M25410 27456 c-60 -16 -109 -47 -155 -97 -58 -64 -80 -121 -80 -209
0 -65 4 -84 33 -142 39 -79 93 -129 169 -158 153 -57 328 12 400 158 24 49 28
69 28 142 -1 72 -5 93 -28 137 -71 137 -223 207 -367 169z"/>
<path d="M12923 27395 c-34 -14 -71 -57 -80 -93 -8 -34 12 -94 42 -122 29 -28
107 -38 145 -18 13 7 35 29 48 48 35 52 26 113 -22 157 -20 18 -44 33 -53 34
-10 0 -25 2 -34 4 -8 1 -29 -3 -46 -10z"/>
<path d="M9883 27378 c-22 -29 -23 -38 -4 -57 25 -25 59 -17 67 15 11 42 -38
74 -63 42z"/>
<path d="M21680 27371 c-158 -66 -231 -252 -157 -403 108 -220 419 -223 527
-5 52 106 42 220 -29 313 -54 71 -125 107 -220 111 -58 2 -87 -1 -121 -16z"/>
<path d="M36105 27332 c-48 -23 -69 -45 -90 -95 -31 -74 -11 -160 49 -216 25
-23 115 -54 139 -46 7 2 24 6 39 9 34 8 94 59 114 99 22 42 21 128 -2 168 -11
17 -36 46 -57 62 -48 40 -131 48 -192 19z"/>
<path d="M28256 27302 c-3 -6 -1 -14 5 -17 15 -10 25 3 12 16 -7 7 -13 7 -17
1z"/>
<path d="M33930 27291 c-44 -23 -72 -71 -72 -121 2 -129 147 -184 238 -89 25
26 29 38 29 89 0 48 -4 63 -25 85 -28 31 -78 55 -112 55 -13 0 -39 -8 -58 -19z"/>
<path d="M30760 27280 c-53 -53 14 -136 75 -96 36 24 37 70 3 99 -27 22 -53
22 -78 -3z"/>
<path d="M10052 27224 c-53 -37 0 -120 59 -91 46 23 31 107 -19 107 -10 0 -28
-7 -40 -16z"/>
<path d="M13510 27151 c-123 -65 -99 -252 37 -277 48 -9 103 9 138 46 23 24
29 41 33 87 3 48 0 64 -20 93 -44 65 -122 87 -188 51z"/>
<path d="M29067 27113 c-12 -12 -7 -41 7 -46 19 -7 40 18 32 38 -6 15 -28 20
-39 8z"/>
<path d="M10300 27048 c-54 -59 9 -151 85 -122 24 10 46 60 39 89 -13 54 -86
73 -124 33z"/>
<path d="M31768 27055 c-67 -37 -32 -143 45 -137 45 4 67 28 67 73 0 29 -6 42
-26 58 -31 24 -49 26 -86 6z"/>
<path d="M18095 26949 c-85 -19 -142 -66 -174 -140 -73 -169 42 -348 225 -349
142 0 246 106 245 251 0 156 -146 273 -296 238z"/>
<path d="M8855 26940 c-8 -13 3 -30 20 -30 14 0 27 24 18 34 -10 9 -31 7 -38
-4z"/>
<path d="M29920 26881 c-7 -15 -6 -23 6 -35 23 -23 44 -17 56 15 14 36 -43 54
-62 20z"/>
<path d="M34907 26859 c-57 -30 -79 -72 -74 -141 4 -63 25 -96 81 -125 39 -20
114 -13 154 15 40 29 65 93 57 144 -12 71 -85 129 -160 128 -11 -1 -37 -10
-58 -21z"/>
<path d="M10629 26841 c-37 -37 -38 -79 -3 -120 21 -26 33 -31 68 -31 57 0 91
34 91 92 0 82 -96 118 -156 59z"/>
<path d="M8300 26840 c0 -5 5 -10 10 -10 6 0 10 5 10 10 0 6 -4 10 -10 10 -5
0 -10 -4 -10 -10z"/>
<path d="M14130 26828 c-94 -65 -110 -184 -36 -263 56 -59 148 -69 217 -22
106 72 94 232 -23 293 -42 22 -119 18 -158 -8z"/>
<path d="M31023 26810 c-145 -30 -247 -156 -247 -305 0 -124 61 -223 172 -277
57 -28 77 -33 139 -33 143 1 261 93 299 232 21 79 14 137 -26 220 -60 121
-202 190 -337 163z"/>
<path d="M32769 26764 c-54 -28 -60 -106 -12 -144 59 -46 143 -8 143 64 0 68
-71 112 -131 80z"/>
<path d="M8854 26686 c-10 -26 4 -48 28 -44 17 2 23 10 23 28 0 18 -6 26 -23
28 -13 2 -25 -3 -28 -12z"/>
<path d="M11044 26611 c-41 -25 -60 -78 -44 -125 14 -44 39 -65 84 -73 90 -14
153 64 119 149 -26 65 -97 87 -159 49z"/>
<path d="M36805 26566 c-34 -15 -92 -76 -106 -113 -5 -13 -9 -43 -9 -66 1
-164 194 -252 316 -145 82 72 92 180 27 267 -47 62 -155 89 -228 57z"/>
<path d="M28394 26549 c-67 -26 -138 -89 -172 -153 -24 -45 -27 -62 -27 -146
0 -87 3 -100 30 -149 60 -109 154 -164 280 -165 68 -1 88 3 137 27 148 72 216
239 163 396 -25 76 -109 161 -188 190 -72 26 -155 27 -223 0z"/>
<path d="M37487 26540 c-36 -11 -93 -54 -114 -86 -9 -14 -22 -48 -29 -76 -35
-133 58 -260 199 -275 138 -14 264 117 241 251 -13 83 -66 151 -141 183 -36
14 -112 16 -156 3z"/>
<path d="M8970 26455 c-31 -38 27 -96 65 -65 18 15 20 51 3 68 -17 17 -53 15
-68 -3z"/>
<path d="M14773 26405 c-61 -37 -88 -86 -88 -161 0 -49 5 -68 27 -101 50 -76
158 -104 243 -63 128 62 138 244 16 321 -60 39 -137 40 -198 4z"/>
<path d="M33744 26400 c-58 -23 -73 -110 -26 -159 41 -45 99 -46 143 -2 78 79
-12 203 -117 161z"/>
<path d="M30076 26381 c-4 -5 -2 -12 3 -15 5 -4 12 -2 15 3 4 5 2 12 -3 15 -5
4 -12 2 -15 -3z"/>
<path d="M31736 26354 c-21 -20 -20 -58 0 -79 25 -24 75 -16 93 16 13 24 13
29 -2 53 -20 30 -66 35 -91 10z"/>
<path d="M22219 26346 c-203 -72 -261 -342 -106 -494 153 -150 413 -93 487
106 55 146 -12 311 -155 378 -58 27 -165 32 -226 10z"/>
<path d="M11533 26328 c-35 -9 -80 -56 -89 -95 -10 -38 13 -98 47 -127 24 -20
41 -26 81 -26 43 0 54 4 83 33 19 19 37 46 41 60 23 94 -68 180 -163 155z"/>
<path d="M35774 26291 c-61 -28 -89 -73 -89 -143 0 -63 19 -97 75 -135 91 -62
225 5 237 118 12 120 -114 211 -223 160z"/>
<path d="M32820 26269 c-163 -65 -242 -267 -166 -423 33 -68 110 -139 173
-160 61 -21 156 -20 217 1 67 24 147 99 177 165 31 71 32 182 2 249 -29 64
-87 126 -147 156 -72 37 -180 42 -256 12z"/>
<path d="M7896 26244 c-4 -10 -2 -22 3 -27 14 -14 43 0 39 20 -4 24 -34 28
-42 7z"/>
<path d="M18726 26225 c-207 -79 -233 -351 -45 -468 131 -81 319 -17 374 128
21 54 17 163 -8 212 -23 43 -72 90 -120 115 -53 27 -149 33 -201 13z"/>
<path d="M9170 26200 c-54 -54 12 -137 76 -95 32 21 33 77 2 99 -30 21 -54 20
-78 -4z"/>
<path d="M36820 26101 c-52 -17 -89 -42 -124 -83 -140 -163 -22 -418 192 -418
74 0 123 20 179 75 38 37 55 63 66 102 36 121 -17 249 -127 305 -44 22 -145
33 -186 19z"/>
<path d="M30896 26093 c-3 -3 -6 -15 -6 -25 0 -22 35 -25 44 -3 5 15 -26 39
-38 28z"/>
<path d="M7882 25961 c-8 -4 -12 -19 -10 -32 4 -33 53 -40 63 -9 11 36 -22 61
-53 41z"/>
<path d="M12013 25950 c-53 -27 -88 -93 -79 -148 22 -140 208 -173 273 -49 65
126 -68 261 -194 197z"/>
<path d="M34652 25934 c-40 -20 -62 -60 -62 -110 0 -28 8 -44 34 -70 26 -26
42 -34 70 -34 110 0 164 120 88 192 -36 35 -87 43 -130 22z"/>
<path d="M9431 25894 c-12 -15 -21 -37 -21 -49 0 -38 37 -75 76 -75 44 0 74
29 74 73 0 70 -87 104 -129 51z"/>
<path d="M35690 25889 c-183 -82 -227 -314 -86 -455 110 -109 268 -113 385 -8
68 61 95 126 89 219 -8 114 -62 195 -163 241 -65 31 -161 32 -225 3z"/>
<path d="M15447 25880 c-43 -13 -95 -57 -116 -98 -71 -140 25 -302 178 -302
65 0 98 13 143 57 83 81 84 207 3 289 -58 58 -132 77 -208 54z"/>
<path d="M25500 25871 c-87 -27 -165 -94 -202 -176 -34 -76 -32 -181 5 -257
56 -114 190 -189 310 -174 109 15 205 85 250 185 31 66 30 177 -2 249 -59 132
-229 213 -361 173z"/>
<path d="M31731 25742 c-8 -15 -7 -23 4 -32 23 -19 50 -8 50 20 0 32 -39 41
-54 12z"/>
<path d="M37265 25716 c-86 -39 -133 -112 -140 -215 -3 -31 -7 -82 -11 -113
-5 -47 -3 -65 16 -103 61 -126 213 -150 319 -50 25 24 63 58 84 76 58 49 81
101 81 184 1 59 -3 77 -26 117 -70 118 -202 161 -323 104z"/>
<path d="M7942 25648 c-7 -7 -12 -21 -12 -33 0 -29 19 -45 52 -45 42 0 59 58
24 82 -17 12 -51 9 -64 -4z"/>
<path d="M30965 25621 c-6 -11 9 -23 19 -14 9 9 7 23 -3 23 -6 0 -12 -4 -16
-9z"/>
<path d="M33548 25600 c-25 -26 -29 -36 -24 -63 9 -46 38 -71 82 -70 76 2 108
90 50 139 -37 33 -71 30 -108 -6z"/>
<path d="M9783 25565 c-61 -26 -72 -97 -24 -146 50 -50 131 -30 150 37 22 80
-49 142 -126 109z"/>
<path d="M36489 25560 c-46 -14 -78 -41 -100 -87 -53 -110 22 -233 143 -233
59 0 98 19 132 63 50 66 46 144 -11 207 -46 52 -103 69 -164 50z"/>
<path d="M7046 25531 c-4 -7 -5 -15 -2 -18 9 -9 19 4 14 18 -4 11 -6 11 -12 0z"/>
<path d="M12534 25491 c-94 -57 -111 -170 -38 -251 54 -59 142 -70 210 -25 95
62 84 230 -19 279 -47 22 -115 20 -153 -3z"/>
<path d="M32577 25373 c-14 -13 -7 -62 11 -71 20 -11 57 0 64 20 11 27 -10 58
-40 58 -16 0 -32 -3 -35 -7z"/>
<path d="M35474 25356 c-47 -21 -74 -61 -74 -112 0 -85 92 -146 170 -114 93
38 97 181 6 224 -41 19 -61 20 -102 2z"/>
<path d="M8080 25300 c-39 -39 -12 -100 44 -100 37 0 51 12 61 52 14 55 -63
90 -105 48z"/>
<path d="M19266 25284 c-95 -30 -176 -143 -176 -248 0 -163 156 -289 315 -256
77 16 142 63 179 130 26 47 30 64 30 125 -1 189 -164 305 -348 249z"/>
<path d="M31734 25249 c-3 -6 0 -17 8 -25 13 -13 16 -13 27 0 7 8 10 20 6 26
-8 13 -32 13 -41 -1z"/>
<path d="M6980 25174 c-11 -12 -11 -18 2 -30 14 -14 17 -14 32 1 13 13 14 20
5 31 -15 18 -24 18 -39 -2z"/>
<path d="M16009 25163 c-35 -19 -64 -43 -84 -71 -27 -39 -30 -51 -30 -120 0
-68 4 -82 29 -120 43 -63 106 -97 181 -97 128 1 217 90 217 215 0 126 -95 220
-223 220 -19 0 -60 -12 -90 -27z"/>
<path d="M10164 25160 c-64 -26 -84 -115 -38 -169 44 -52 134 -51 169 3 61 93
-29 207 -131 166z"/>
<path d="M34402 25115 c-26 -22 -32 -34 -32 -66 0 -86 100 -123 154 -58 15 17
26 43 26 59 0 40 -37 79 -81 86 -28 5 -41 1 -67 -21z"/>
<path d="M37405 25041 c-114 -53 -156 -177 -97 -292 75 -148 285 -156 368 -13
49 83 42 176 -18 248 -59 72 -168 97 -253 57z"/>
<path d="M22541 25019 c-171 -32 -275 -224 -212 -391 41 -108 136 -177 252
-186 173 -12 311 114 313 288 3 189 -163 324 -353 289z"/>
<path d="M13072 24929 c-130 -65 -129 -248 2 -316 45 -23 116 -20 165 7 124
71 117 252 -13 311 -54 24 -101 24 -154 -2z"/>
<path d="M33406 24924 c-32 -32 -8 -84 39 -84 44 0 66 40 45 81 -13 23 -62 26
-84 3z"/>
<path d="M8280 24908 c-27 -30 -26 -73 5 -103 30 -30 64 -32 99 -4 33 26 36
79 6 109 -27 27 -83 27 -110 -2z"/>
<path d="M33832 24864 c-118 -59 -175 -196 -133 -321 26 -76 62 -117 136 -154
56 -27 72 -31 127 -27 151 10 251 115 252 263 0 53 -5 81 -23 117 -63 131
-229 187 -359 122z"/>
<path d="M32523 24843 c-17 -6 -16 -38 0 -52 21 -17 56 12 41 35 -12 20 -23
25 -41 17z"/>
<path d="M6270 24800 c0 -5 5 -10 10 -10 6 0 10 5 10 10 0 6 -4 10 -10 10 -5
0 -10 -4 -10 -10z"/>
<path d="M6997 24794 c-15 -16 -7 -53 14 -59 30 -10 58 19 43 43 -12 18 -45
28 -57 16z"/>
<path d="M10585 24674 c-88 -30 -112 -135 -46 -198 78 -74 197 -37 208 66 12
101 -67 165 -162 132z"/>
<path d="M36134 24630 c-37 -24 -58 -67 -56 -117 4 -112 143 -162 219 -80 40
44 50 91 29 140 -29 71 -126 99 -192 57z"/>
<path d="M36981 24630 c-94 -22 -152 -130 -116 -217 30 -72 77 -104 155 -105
91 -2 160 68 160 164 -1 103 -98 181 -199 158z"/>
<path d="M35173 24535 c-13 -9 -28 -33 -34 -54 -14 -49 2 -87 49 -114 29 -17
39 -18 72 -8 48 14 70 44 70 94 0 77 -94 126 -157 82z"/>
<path d="M8544 24467 c-48 -41 -30 -127 31 -147 59 -20 115 20 115 82 0 79
-86 117 -146 65z"/>
<path d="M34230 24432 c-50 -16 -65 -67 -30 -102 41 -41 100 -13 100 47 0 40
-34 67 -70 55z"/>
<path d="M6164 24385 c-4 -9 -2 -21 4 -27 15 -15 44 -1 40 19 -4 23 -36 29
-44 8z"/>
<path d="M7080 24366 c-29 -36 13 -92 58 -75 25 9 31 56 10 77 -16 16 -53 15
-68 -2z"/>
<path d="M33293 24372 c-11 -7 -17 -26 -14 -48 3 -32 71 -18 71 14 0 33 -31
51 -57 34z"/>
<path d="M16557 24304 c-126 -38 -191 -184 -136 -304 40 -90 107 -133 204
-133 156 -1 258 139 215 293 -31 110 -166 179 -283 144z"/>
<path d="M37344 24271 c-95 -44 -137 -169 -88 -262 17 -33 78 -87 107 -94 146
-37 267 58 255 201 -5 61 -34 109 -86 144 -47 33 -132 38 -188 11z"/>
<path d="M13600 24244 c-73 -32 -112 -90 -114 -169 -3 -207 286 -263 360 -70
58 154 -96 304 -246 239z"/>
<path d="M27772 24236 c-124 -41 -200 -138 -210 -267 -8 -119 48 -223 155
-286 61 -35 167 -43 244 -18 76 26 161 112 183 185 59 197 -67 384 -266 396
-37 2 -81 -2 -106 -10z"/>
<path d="M19640 24107 c-19 -6 -58 -34 -87 -62 -88 -86 -105 -198 -46 -307 46
-85 125 -130 226 -129 191 1 313 202 226 372 -24 49 -99 113 -147 127 -48 15
-125 14 -172 -1z"/>
<path d="M11001 24092 c-93 -50 -92 -190 0 -238 95 -49 202 15 202 121 0 103
-110 166 -202 117z"/>
<path d="M29915 24039 c-164 -40 -252 -222 -184 -380 24 -55 90 -120 146 -145
54 -23 159 -21 215 4 163 72 215 280 105 424 -59 77 -185 121 -282 97z"/>
<path d="M8851 23959 c-49 -46 -49 -112 1 -154 39 -33 87 -33 127 1 75 63 34
173 -65 174 -27 0 -47 -7 -63 -21z"/>
<path d="M6145 23936 c-25 -18 -15 -50 16 -54 28 -3 43 16 33 42 -8 21 -30 26
-49 12z"/>
<path d="M25247 23936 c-183 -68 -254 -269 -149 -424 96 -143 303 -167 425
-49 65 64 82 107 82 207 0 93 -11 122 -67 186 -66 75 -203 113 -291 80z"/>
<path d="M33195 23910 c-4 -6 -3 -16 3 -22 6 -6 12 -6 17 2 4 6 3 16 -3 22 -6
6 -12 6 -17 -2z"/>
<path d="M7230 23890 c-11 -11 -20 -29 -20 -40 0 -11 9 -29 20 -40 11 -11 29
-20 40 -20 11 0 29 9 40 20 11 11 20 29 20 40 0 11 -9 29 -20 40 -11 11 -29
20 -40 20 -11 0 -29 -9 -40 -20z"/>
<path d="M35873 23853 c-12 -2 -34 -18 -48 -34 -56 -68 -13 -172 71 -172 52 0
90 25 104 69 27 80 -41 152 -127 137z"/>
<path d="M34020 23835 c-17 -20 -5 -61 19 -68 25 -6 61 19 61 42 0 38 -55 56
-80 26z"/>
<path d="M34948 23838 c-52 -18 -55 -102 -4 -126 22 -11 33 -11 58 -1 85 35
34 157 -54 127z"/>
<path d="M36663 23774 c-42 -21 -73 -71 -73 -117 0 -31 -4 -37 -34 -47 -100
-33 -165 -166 -132 -273 30 -100 118 -167 219 -167 168 0 281 185 203 333
l-25 45 20 38 c24 48 24 90 -1 131 -38 63 -116 88 -177 57z"/>
<path d="M5470 23595 c0 -8 5 -15 10 -15 6 0 10 7 10 15 0 8 -4 15 -10 15 -5
0 -10 -7 -10 -15z"/>
<path d="M35724 23576 c-58 -18 -102 -54 -132 -106 -22 -37 -27 -57 -27 -115
0 -59 5 -78 28 -118 52 -88 152 -130 255 -107 46 10 65 21 108 64 63 64 82
127 64 213 -27 126 -173 210 -296 169z"/>
<path d="M37220 23496 c-74 -23 -120 -82 -120 -153 0 -42 -1 -43 -39 -49 -56
-9 -111 -43 -144 -90 -93 -133 6 -314 172 -314 78 0 163 64 186 142 13 44 13
68 0 126 -4 16 -1 22 11 22 32 0 86 34 110 69 84 128 -33 292 -176 247z"/>
<path d="M6183 23443 c-18 -7 -16 -58 2 -73 23 -19 65 2 65 33 0 38 -29 56
-67 40z"/>
<path d="M11467 23425 c-107 -38 -139 -156 -66 -240 54 -61 139 -69 200 -18
74 63 78 166 8 229 -21 19 -38 27 -89 39 -8 2 -32 -2 -53 -10z"/>
<path d="M14062 23409 c-105 -52 -137 -207 -60 -295 43 -49 83 -67 148 -67 61
0 101 17 142 60 35 37 48 73 48 137 0 139 -150 228 -278 165z"/>
<path d="M22583 23399 c-134 -17 -231 -132 -232 -276 -2 -185 191 -321 369
-258 84 30 158 111 175 195 42 200 -110 365 -312 339z"/>
<path d="M9190 23373 c-55 -50 -56 -125 -4 -174 20 -19 36 -24 74 -24 56 0 95
29 109 79 18 71 -37 146 -109 146 -29 0 -48 -7 -70 -27z"/>
<path d="M7460 23382 c-48 -15 -68 -83 -34 -116 56 -57 149 6 116 78 -11 25
-57 46 -82 38z"/>
<path d="M33874 23365 c-4 -9 -2 -21 4 -27 15 -15 44 -1 40 19 -4 23 -36 29
-44 8z"/>
<path d="M31450 23271 c-53 -17 -109 -51 -135 -83 -117 -138 -78 -346 80 -431
32 -17 57 -22 125 -22 68 0 93 5 125 22 200 107 198 390 -3 493 -46 24 -149
35 -192 21z"/>
<path d="M16966 23246 c-92 -34 -147 -105 -154 -196 -6 -80 16 -137 72 -188
166 -153 432 4 376 219 -35 133 -173 210 -294 165z"/>
<path d="M34707 23239 c-28 -39 1 -83 50 -77 20 2 30 11 37 30 19 54 -55 93
-87 47z"/>
<path d="M35566 23138 c-26 -41 -24 -80 6 -108 30 -27 73 -26 103 5 30 30 32
64 4 99 -28 35 -91 37 -113 4z"/>
<path d="M5400 23070 c0 -13 7 -20 20 -20 13 0 20 7 20 20 0 13 -7 20 -20 20
-13 0 -20 -7 -20 -20z"/>
<path d="M34359 23052 c-50 -6 -132 -64 -163 -116 -63 -101 -41 -246 47 -321
71 -61 162 -79 248 -50 163 56 222 259 115 399 -46 61 -156 100 -247 88z"/>
<path d="M36393 23026 c-58 -26 -83 -100 -53 -156 35 -65 152 -64 186 1 48 94
-39 196 -133 155z"/>
<path d="M33760 23009 c0 -5 5 -7 10 -4 6 3 10 8 10 11 0 2 -4 4 -10 4 -5 0
-10 -5 -10 -11z"/>
<path d="M6280 22890 c-11 -11 -20 -27 -20 -35 0 -8 9 -24 20 -35 11 -11 27
-20 35 -20 21 0 55 36 55 59 0 20 -35 51 -57 51 -7 0 -22 -9 -33 -20z"/>
<path d="M4896 22851 c-4 -5 -2 -12 3 -15 5 -4 12 -2 15 3 4 5 2 12 -3 15 -5
4 -12 2 -15 -3z"/>
<path d="M7672 22767 c-32 -34 -30 -89 4 -116 36 -28 79 -27 109 4 31 30 32
73 4 109 -27 35 -86 36 -117 3z"/>
<path d="M37208 22775 c-26 -6 -54 -17 -62 -24 -11 -9 -20 -10 -36 -1 -59 32
-151 1 -183 -60 -48 -92 33 -209 136 -196 20 2 37 0 37 -5 0 -5 18 -22 40 -38
158 -114 361 48 281 224 -16 36 -71 95 -89 95 -4 0 -23 4 -42 9 -23 5 -53 4
-82 -4z"/>
<path d="M9575 22720 c-38 -15 -67 -57 -72 -102 -11 -114 124 -179 205 -98 94
93 -11 251 -133 200z"/>
<path d="M19838 22705 c-84 -31 -148 -110 -163 -202 -10 -61 17 -144 62 -194
43 -48 74 -65 142 -80 98 -21 213 38 262 133 99 195 -98 418 -303 343z"/>
<path d="M11849 22617 c-111 -74 -82 -250 47 -286 75 -21 173 33 193 106 20
73 -14 154 -79 188 -44 23 -121 19 -161 -8z"/>
<path d="M35323 22564 c-15 -24 -15 -29 -2 -53 11 -20 22 -26 49 -26 27 0 38
6 49 26 13 24 13 29 -2 53 -12 18 -26 26 -47 26 -21 0 -35 -8 -47 -26z"/>
<path d="M5404 22525 c-9 -23 3 -45 25 -45 23 0 35 28 20 46 -15 18 -38 18
-45 -1z"/>
<path d="M14510 22448 c-50 -14 -97 -53 -121 -100 -17 -33 -20 -55 -17 -104 5
-76 38 -125 109 -162 123 -65 279 35 279 179 0 124 -131 222 -250 187z"/>
<path d="M34365 22421 c-7 -12 12 -24 25 -16 11 7 4 25 -10 25 -5 0 -11 -4
-15 -9z"/>
<path d="M36140 22383 c-61 -22 -79 -95 -35 -138 50 -51 135 -15 135 58 0 49
-57 95 -100 80z"/>
<path d="M6427 22292 c-36 -40 -9 -102 44 -102 32 0 46 10 57 41 10 25 1 56
-22 71 -20 14 -63 8 -79 -10z"/>
<path d="M4805 22279 c-10 -15 3 -25 16 -12 7 7 7 13 1 17 -6 3 -14 1 -17 -5z"/>
<path d="M37190 22168 c-50 -26 -90 -89 -90 -143 0 -37 36 -102 71 -128 72
-52 185 -20 227 65 68 136 -73 275 -208 206z"/>
<path d="M7959 22117 c-23 -17 -39 -52 -39 -82 0 -38 50 -85 90 -85 45 0 90
47 90 93 0 48 -40 87 -89 87 -20 0 -43 -6 -52 -13z"/>
<path d="M35120 22115 c-20 -25 -8 -50 25 -50 21 0 31 5 33 18 4 21 -14 47
-33 47 -7 0 -18 -7 -25 -15z"/>
<path d="M36733 22055 c-33 -33 -35 -39 -30 -81 7 -67 42 -99 107 -99 65 0
100 32 107 99 5 42 3 48 -30 81 -29 29 -42 35 -77 35 -35 0 -48 -6 -77 -35z"/>
<path d="M17245 22004 c-170 -62 -196 -300 -44 -401 81 -54 207 -40 278 29 42
41 60 77 68 133 22 164 -145 296 -302 239z"/>
<path d="M9931 21952 c-80 -43 -93 -149 -27 -209 30 -28 43 -33 86 -33 43 0
56 5 86 33 60 55 57 152 -6 197 -42 30 -98 35 -139 12z"/>
<path d="M32453 21949 c-179 -32 -256 -247 -136 -380 139 -154 381 -80 409
124 21 150 -120 283 -273 256z"/>
<path d="M5466 21924 c-9 -8 -16 -19 -16 -24 0 -9 28 -40 36 -40 17 0 44 23
44 38 0 38 -37 53 -64 26z"/>
<path d="M35860 21820 c-11 -11 -20 -29 -20 -40 0 -27 35 -60 63 -60 50 0 76
70 39 103 -25 23 -58 21 -82 -3z"/>
<path d="M24729 21792 c-182 -95 -182 -352 0 -444 126 -64 269 -20 335 102 72
133 13 296 -129 356 -58 24 -145 18 -206 -14z"/>
<path d="M26937 21785 c-58 -22 -110 -68 -142 -127 -25 -44 -29 -64 -29 -123
1 -155 110 -265 264 -265 218 0 340 236 216 418 -46 66 -135 112 -214 111 -32
0 -74 -7 -95 -14z"/>
<path d="M34930 21760 c0 -15 5 -20 18 -18 9 2 17 10 17 18 0 8 -8 16 -17 18
-13 2 -18 -3 -18 -18z"/>
<path d="M12295 21730 c-92 -21 -146 -104 -125 -194 33 -145 222 -176 301 -50
26 43 28 117 5 162 -31 59 -115 97 -181 82z"/>
<path d="M4770 21675 c-10 -11 -10 -19 -2 -27 15 -15 44 -2 40 19 -4 23 -22
27 -38 8z"/>
<path d="M6625 21635 c-30 -29 -32 -68 -5 -95 45 -45 120 -18 120 44 0 37 -7
49 -37 65 -33 17 -51 14 -78 -14z"/>
<path d="M37105 21571 c-55 -34 -70 -58 -70 -117 0 -48 4 -57 36 -90 110 -109
279 12 213 152 -19 39 -76 74 -121 74 -15 0 -41 -8 -58 -19z"/>
<path d="M22351 21560 c-99 -33 -154 -96 -172 -195 -17 -89 6 -161 71 -225
162 -163 434 -49 432 181 -1 173 -168 294 -331 239z"/>
<path d="M36510 21480 c-45 -45 -33 -111 24 -138 57 -28 116 12 116 77 0 31
-6 44 -26 60 -34 27 -88 27 -114 1z"/>
<path d="M35632 21385 c-4 -9 -24 -24 -43 -34 -55 -29 -92 -90 -97 -160 -6
-78 10 -121 63 -170 74 -68 164 -77 252 -25 150 88 118 330 -50 375 -23 6 -50
15 -59 20 -27 14 -56 11 -66 -6z"/>
<path d="M8247 21370 c-34 -27 -44 -78 -23 -118 33 -63 112 -75 158 -23 37 41
37 88 2 130 -21 26 -33 31 -69 31 -27 0 -51 -7 -68 -20z"/>
<path d="M36374 21340 c-50 -11 -98 -46 -122 -88 -40 -72 -23 -184 36 -229 14
-12 14 -15 -3 -33 -24 -27 -22 -70 5 -92 44 -35 100 -10 100 46 0 31 2 33 36
34 77 3 142 60 164 144 12 44 2 94 -29 145 -33 53 -120 87 -187 73z"/>
<path d="M28732 21314 c-140 -69 -175 -246 -74 -364 51 -60 104 -84 182 -84
102 0 176 48 219 144 91 200 -128 403 -327 304z"/>
<path d="M14815 21315 c-46 -25 -76 -56 -96 -100 -49 -105 14 -231 129 -260
108 -28 204 29 233 137 21 78 -7 151 -76 204 -47 35 -142 45 -190 19z"/>
<path d="M5582 21278 c-7 -7 -12 -25 -12 -40 0 -21 6 -29 25 -34 31 -8 55 10
55 40 0 26 -18 46 -40 46 -9 0 -21 -5 -28 -12z"/>
<path d="M19866 21120 c-110 -33 -179 -157 -154 -275 35 -163 246 -229 370
-117 53 48 78 102 78 172 0 70 -26 126 -79 171 -61 53 -140 71 -215 49z"/>
<path d="M10294 21096 c-137 -60 -92 -256 59 -256 44 0 53 4 88 39 35 34 39
44 39 87 0 108 -91 171 -186 130z"/>
<path d="M36767 21086 c-50 -18 -76 -42 -98 -91 -33 -72 -19 -144 37 -197 67
-62 168 -65 232 -5 18 16 33 20 72 18 44 -2 54 1 80 27 25 25 30 39 30 77 0
38 -5 52 -29 76 -28 27 -50 34 -95 29 -10 -1 -30 10 -45 24 -30 29 -90 56
-123 56 -13 -1 -40 -7 -61 -14z"/>
<path d="M35434 21065 c-4 -9 -2 -21 4 -27 15 -15 44 -1 40 19 -4 23 -36 29
-44 8z"/>
<path d="M34536 21050 c-42 -13 -90 -49 -117 -88 -33 -49 -39 -144 -11 -198
41 -80 100 -116 189 -115 183 1 270 220 138 347 -56 55 -129 74 -199 54z"/>
<path d="M4794 21025 c-4 -9 0 -23 8 -31 20 -20 50 -7 46 20 -4 26 -45 35 -54
11z"/>
<path d="M6855 20915 c-24 -24 -31 -57 -19 -90 9 -24 55 -44 87 -38 59 11 78
95 31 132 -35 28 -69 26 -99 -4z"/>
<path d="M4300 20889 c0 -5 5 -7 10 -4 6 3 10 8 10 11 0 2 -4 4 -10 4 -5 0
-10 -5 -10 -11z"/>
<path d="M12615 20691 c-104 -46 -137 -170 -68 -251 35 -42 73 -60 128 -60
142 0 216 160 123 266 -51 58 -118 74 -183 45z"/>
<path d="M36960 20692 c-19 -9 -45 -33 -58 -52 -20 -29 -23 -44 -20 -88 3 -36
1 -49 -6 -42 -19 19 -76 11 -101 -15 -52 -51 -16 -145 55 -145 37 0 90 47 90
79 0 25 3 26 36 4 60 -39 166 -6 198 61 47 99 -23 216 -129 216 -16 0 -46 -8
-65 -18z"/>
<path d="M17381 20594 c-200 -100 -128 -405 95 -404 226 1 296 300 95 403 -70
35 -121 35 -190 1z"/>
<path d="M36072 20598 c-27 -27 -6 -68 35 -68 28 0 46 36 31 63 -10 20 -48 23
-66 5z"/>
<path d="M5736 20571 c-38 -42 13 -108 59 -77 26 17 31 59 10 80 -22 21 -48
20 -69 -3z"/>
<path d="M8584 20570 c-12 -4 -31 -21 -44 -37 -18 -22 -21 -37 -17 -73 7 -59
41 -90 101 -90 105 0 144 129 57 187 -35 24 -62 28 -97 13z"/>
<path d="M30140 20481 c-110 -34 -173 -118 -174 -231 -1 -181 181 -295 342
-214 89 44 132 116 132 220 -1 150 -158 268 -300 225z"/>
<path d="M4886 20344 c-12 -12 -13 -20 -6 -35 12 -21 40 -25 58 -7 16 16 15
23 -4 42 -19 20 -29 20 -48 0z"/>
<path d="M32998 20349 c-20 -6 -55 -27 -78 -47 -157 -134 -66 -383 140 -384
182 -2 286 197 182 347 -51 73 -155 109 -244 84z"/>
<path d="M35872 20298 c4 -30 43 -33 43 -3 0 13 -8 21 -23 23 -20 3 -23 0 -20
-20z"/>
<path d="M37021 20262 c-77 -38 -90 -135 -27 -198 107 -107 275 24 196 153
-36 60 -105 78 -169 45z"/>
<path d="M4310 20215 c0 -9 5 -15 11 -13 6 2 11 8 11 13 0 5 -5 11 -11 13 -6
2 -11 -4 -11 -13z"/>
<path d="M7135 20150 c-28 -11 -44 -31 -51 -68 -5 -26 -1 -36 24 -62 36 -36
71 -39 106 -7 25 21 31 39 28 84 -3 38 -66 69 -107 53z"/>
<path d="M10613 20130 c-113 -69 -63 -250 69 -250 72 0 138 65 138 135 0 101
-120 168 -207 115z"/>
<path d="M35695 20130 c-3 -5 -1 -10 4 -10 6 0 11 5 11 10 0 6 -2 10 -4 10 -3
0 -8 -4 -11 -10z"/>
<path d="M36595 20076 c-30 -30 -32 -59 -5 -86 27 -27 75 -26 94 2 31 43 13
86 -41 102 -17 5 -29 1 -48 -18z"/>
<path d="M15052 20059 c-88 -44 -127 -160 -84 -245 37 -73 88 -104 167 -104
79 0 130 32 166 102 40 77 11 186 -61 234 -55 37 -132 42 -188 13z"/>
<path d="M37045 19844 c-5 -1 -23 -5 -38 -8 -31 -7 -67 -58 -67 -94 0 -55 48
-102 105 -102 57 0 105 47 105 102 0 50 -64 113 -105 102z"/>
<path d="M5934 19815 c-18 -19 -23 -31 -19 -48 15 -47 61 -61 95 -27 26 26 25
46 -5 75 -30 31 -40 31 -71 0z"/>
<path d="M36405 19736 c-21 -31 -5 -66 28 -66 46 0 66 59 28 80 -29 15 -39 13
-56 -14z"/>
<path d="M8878 19664 c-35 -19 -48 -43 -48 -93 0 -50 31 -89 81 -100 106 -24
177 103 100 180 -34 33 -87 39 -133 13z"/>
<path d="M22005 19628 c-61 -17 -139 -100 -155 -166 -25 -105 17 -206 107
-259 41 -24 59 -28 118 -28 78 1 112 14 164 67 45 46 63 93 64 163 1 154 -147
265 -298 223z"/>
<path d="M24169 19626 c-175 -47 -224 -268 -84 -384 92 -75 210 -68 296 18 73
73 87 167 38 262 -24 47 -89 95 -138 104 -20 3 -43 7 -51 9 -8 2 -36 -2 -61
-9z"/>
<path d="M5020 19616 c-20 -25 -8 -61 22 -64 36 -4 53 26 32 56 -18 25 -37 28
-54 8z"/>
<path d="M12895 19556 c-85 -38 -119 -140 -76 -225 66 -127 261 -105 300 34
35 128 -103 245 -224 191z"/>
<path d="M4000 19529 c0 -5 5 -7 10 -4 6 3 10 8 10 11 0 2 -4 4 -10 4 -5 0
-10 -5 -10 -11z"/>
<path d="M4373 19514 c-7 -18 17 -38 31 -24 11 11 1 40 -14 40 -6 0 -13 -7
-17 -16z"/>
<path d="M36231 19510 c-19 -11 -9 -45 14 -45 13 0 21 8 23 21 3 23 -17 37
-37 24z"/>
<path d="M36894 19427 c-51 -44 -30 -128 36 -142 32 -7 84 15 94 40 13 35 6
76 -19 100 -31 32 -75 32 -111 2z"/>
<path d="M19755 19411 c-130 -32 -200 -168 -146 -286 24 -53 91 -112 136 -121
62 -11 131 1 174 31 51 35 91 112 91 174 0 90 -68 178 -156 200 -47 12 -55 12
-99 2z"/>
<path d="M26044 19372 c-49 -24 -111 -93 -124 -141 -45 -161 65 -306 230 -305
129 1 225 102 224 236 0 56 -5 74 -30 115 -45 73 -101 105 -188 110 -55 3 -80
-1 -112 -15z"/>
<path d="M36055 19361 c-3 -5 -1 -12 5 -16 5 -3 10 1 10 9 0 18 -6 21 -15 7z"/>
<path d="M35490 19298 c-49 -34 -72 -71 -77 -125 -16 -162 183 -240 289 -114
62 73 40 190 -44 241 -47 28 -125 27 -168 -2z"/>
<path d="M7387 19289 c-41 -36 -45 -78 -12 -117 53 -63 145 -31 145 50 0 46
-26 77 -71 84 -28 5 -41 1 -62 -17z"/>
<path d="M36130 19288 c-48 -25 -90 -89 -90 -138 0 -36 40 -110 72 -134 16
-11 49 -21 80 -24 61 -4 106 19 145 77 54 80 10 197 -86 230 -49 16 -71 14
-121 -11z"/>
<path d="M31075 19241 c-89 -40 -137 -134 -116 -225 47 -203 324 -214 390 -17
14 42 14 65 0 114 -22 79 -111 147 -194 147 -22 0 -58 -9 -80 -19z"/>
<path d="M34615 19130 c-78 -17 -125 -63 -146 -141 -22 -83 23 -173 106 -210
65 -30 139 -20 195 28 95 80 83 235 -22 298 -39 23 -94 33 -133 25z"/>
<path d="M36556 19119 c-84 -24 -122 -127 -73 -200 49 -75 138 -85 205 -24 29
26 35 40 39 81 8 98 -77 170 -171 143z"/>
<path d="M10947 19098 c-141 -37 -107 -258 40 -258 50 0 82 18 110 59 46 68
22 155 -52 191 -46 22 -45 22 -98 8z"/>
<path d="M36783 19095 c-32 -22 -35 -64 -7 -92 28 -28 44 -29 78 -2 31 25 34
61 6 89 -24 24 -48 25 -77 5z"/>
<path d="M17425 19081 c-193 -89 -128 -381 85 -381 217 0 278 301 78 385 -50
20 -114 19 -163 -4z"/>
<path d="M6162 19014 c-45 -31 -17 -104 40 -104 53 0 79 74 36 104 -12 9 -29
16 -38 16 -9 0 -26 -7 -38 -16z"/>
<path d="M36770 18863 c-8 -3 -25 -15 -38 -26 -17 -16 -25 -18 -34 -9 -15 15
-51 15 -66 0 -31 -31 1 -83 45 -76 17 3 19 -1 22 -38 0 -9 16 -31 35 -50 29
-29 41 -34 80 -34 83 0 142 77 116 153 -16 50 -51 79 -102 83 -24 2 -50 1 -58
-3z"/>
<path d="M5196 18844 c-9 -8 -16 -22 -16 -29 0 -17 27 -45 44 -45 7 0 21 9 31
20 17 18 17 21 1 45 -19 29 -38 32 -60 9z"/>
<path d="M4060 18820 c0 -5 5 -10 11 -10 5 0 7 5 4 10 -3 6 -8 10 -11 10 -2 0
-4 -4 -4 -10z"/>
<path d="M27670 18789 c-79 -32 -133 -110 -132 -194 0 -94 56 -174 142 -199
201 -60 354 174 217 331 -55 63 -156 90 -227 62z"/>
<path d="M4494 18775 c-7 -18 3 -35 21 -35 15 0 24 19 18 38 -6 17 -32 15 -39
-3z"/>
<path d="M9203 18708 c-44 -12 -73 -51 -73 -102 0 -50 21 -83 66 -102 111 -46
204 96 116 178 -32 30 -64 38 -109 26z"/>
<path d="M15210 18698 c-112 -57 -131 -193 -39 -280 67 -64 158 -64 228 0 94
86 72 231 -43 283 -54 25 -92 24 -146 -3z"/>
<path d="M36482 18628 c2 -15 10 -23 23 -23 13 0 21 8 23 23 3 18 -1 22 -23
22 -22 0 -26 -4 -23 -22z"/>
<path d="M33313 18615 c-109 -50 -137 -187 -57 -275 88 -98 243 -72 296 48 67
150 -89 297 -239 227z"/>
<path d="M36843 18545 c-31 -31 -35 -40 -30 -72 15 -87 111 -119 168 -55 44
49 34 119 -22 148 -46 23 -78 17 -116 -21z"/>
<path d="M36336 18551 c-4 -5 -2 -12 3 -15 5 -4 12 -2 15 3 4 5 2 12 -3 15 -5
4 -12 2 -15 -3z"/>
<path d="M7665 18375 c-52 -51 -16 -145 55 -145 37 0 90 47 90 80 0 78 -91
119 -145 65z"/>
<path d="M13099 18316 c-133 -90 -57 -299 103 -284 84 9 140 69 140 153 0 90
-66 155 -156 155 -38 0 -61 -6 -87 -24z"/>
<path d="M36900 18302 c-62 -19 -82 -103 -34 -141 78 -62 176 34 114 111 -20
26 -53 38 -80 30z"/>
<path d="M6410 18160 c-39 -39 -11 -110 44 -110 25 0 66 41 66 65 0 7 -9 24
-21 39 -25 31 -61 34 -89 6z"/>
<path d="M4170 18080 c0 -5 5 -10 10 -10 6 0 10 5 10 10 0 6 -4 10 -10 10 -5
0 -10 -4 -10 -10z"/>
<path d="M36827 18042 c-37 -40 -9 -102 46 -102 28 0 57 32 57 62 0 25 -36 58
-63 58 -13 0 -31 -8 -40 -18z"/>
<path d="M5406 18034 c-20 -19 -20 -24 0 -52 26 -37 74 -23 74 23 0 42 -44 59
-74 29z"/>
<path d="M4656 18004 c-8 -21 1 -34 24 -34 10 0 21 4 24 9 10 16 -5 41 -24 41
-10 0 -21 -7 -24 -16z"/>
<path d="M11214 17974 c-22 -8 -40 -14 -41 -14 -1 0 -11 -15 -22 -34 -13 -20
-21 -50 -21 -76 0 -36 6 -48 39 -81 33 -33 45 -39 82 -39 74 0 127 44 130 107
3 56 -1 73 -28 103 -36 40 -87 52 -139 34z"/>
<path d="M28924 17923 c-137 -48 -179 -234 -76 -339 129 -130 352 -40 352 143
0 93 -58 173 -145 198 -57 17 -78 16 -131 -2z"/>
<path d="M36750 17860 c-30 -30 -13 -65 31 -65 32 0 34 2 34 34 0 44 -35 61
-65 31z"/>
<path d="M31730 17854 c-77 -33 -121 -98 -122 -178 -2 -170 190 -256 318 -143
111 97 68 287 -74 327 -50 13 -80 12 -122 -6z"/>
<path d="M36647 17753 c-13 -12 -7 -41 10 -47 23 -9 47 22 32 41 -12 14 -32
17 -42 6z"/>
<path d="M36530 17710 c0 -5 7 -10 15 -10 8 0 15 5 15 10 0 6 -7 10 -15 10 -8
0 -15 -4 -15 -10z"/>
<path d="M9483 17675 c-71 -30 -88 -121 -34 -176 24 -24 38 -29 76 -29 38 0
52 5 76 29 24 24 29 38 29 76 0 38 -5 52 -29 76 -16 16 -36 29 -44 29 -9 0
-21 2 -29 5 -7 2 -27 -2 -45 -10z"/>
<path d="M21592 17668 c-84 -14 -149 -79 -167 -166 -20 -97 55 -209 156 -232
163 -36 293 112 240 273 -11 32 -89 117 -108 117 -5 0 -24 4 -43 8 -19 5 -54
5 -78 0z"/>
<path d="M19511 17639 c-77 -23 -131 -96 -131 -177 0 -58 20 -101 63 -139 133
-117 329 -5 303 171 -16 104 -132 175 -235 145z"/>
<path d="M17413 17510 c-107 -23 -171 -125 -144 -228 15 -52 44 -88 94 -114
123 -63 267 24 267 162 0 50 -15 88 -48 123 -47 49 -107 69 -169 57z"/>
<path d="M23468 17470 c-42 -23 -84 -73 -92 -110 -20 -89 -11 -134 41 -191 60
-66 154 -80 240 -36 121 63 124 246 5 328 -48 33 -142 37 -194 9z"/>
<path d="M35400 17483 c-47 -17 -90 -83 -90 -138 0 -127 156 -188 244 -96 38
40 48 118 20 168 -29 55 -115 87 -174 66z"/>
<path d="M35962 17474 c-41 -21 -62 -60 -62 -115 0 -33 6 -47 34 -75 33 -33
51 -39 106 -34 61 4 106 66 97 133 -11 82 -101 129 -175 91z"/>
<path d="M7972 17434 c-49 -20 -60 -88 -21 -130 50 -54 139 -17 139 57 0 61
-60 98 -118 73z"/>
<path d="M36319 17371 c-29 -30 -33 -41 -29 -96 3 -42 16 -62 50 -80 47 -24
95 -19 132 14 29 26 33 35 33 81 0 46 -4 55 -33 81 -46 41 -111 41 -153 0z"/>
<path d="M4342 17331 c4 -13 18 -16 19 -4 0 4 -5 9 -11 12 -7 2 -11 -2 -8 -8z"/>
<path d="M34573 17300 c-139 -84 -41 -303 116 -260 45 12 101 69 102 103 0 12
2 29 4 38 5 30 -33 98 -67 119 -43 26 -113 26 -155 0z"/>
<path d="M6699 17276 c-60 -30 -41 -116 26 -116 56 0 87 68 48 102 -28 23 -48
27 -74 14z"/>
<path d="M15300 17279 c-89 -36 -129 -153 -77 -229 52 -77 129 -98 207 -58
115 59 115 218 0 276 -47 23 -89 27 -130 11z"/>
<path d="M36570 17230 c-29 -29 -35 -67 -17 -105 30 -64 123 -64 154 -1 30 64
-7 126 -77 126 -26 0 -47 -7 -60 -20z"/>
<path d="M4870 17215 c-11 -13 -11 -18 2 -31 20 -20 50 -7 46 20 -4 26 -30 32
-48 11z"/>
<path d="M5652 17198 c-19 -19 -14 -56 8 -68 43 -23 83 17 60 60 -12 22 -49
27 -68 8z"/>
<path d="M25220 17103 c-55 -20 -85 -41 -111 -79 -124 -180 80 -399 268 -288
139 81 122 295 -29 359 -37 15 -98 19 -128 8z"/>
<path d="M36724 17095 c-34 -14 -44 -32 -44 -75 0 -29 39 -70 66 -70 11 0 12
-4 2 -19 -9 -15 -9 -25 0 -46 11 -23 9 -29 -14 -50 -39 -36 -26 -57 28 -49 53
8 70 21 66 49 -1 12 3 29 10 38 19 23 11 70 -14 82 -19 10 -20 13 -8 30 45 61
-21 140 -92 110z"/>
<path d="M13282 17030 c-51 -32 -74 -76 -69 -138 6 -86 71 -138 160 -129 39 3
56 11 85 40 30 30 36 44 39 89 3 41 -1 60 -16 86 -28 43 -77 72 -126 72 -22 0
-54 -9 -73 -20z"/>
<path d="M33527 16966 c-77 -28 -114 -89 -104 -173 6 -58 32 -92 90 -122 110
-55 227 21 227 147 0 112 -108 187 -213 148z"/>
<path d="M36650 16850 c0 -5 5 -10 10 -10 6 0 10 5 10 10 0 6 -4 10 -10 10 -5
0 -10 -4 -10 -10z"/>
<path d="M29890 16808 c-69 -19 -122 -90 -122 -163 0 -78 52 -146 130 -170 43
-13 111 4 149 38 140 123 22 344 -157 295z"/>
<path d="M11444 16800 c-11 -4 -33 -22 -47 -40 -80 -95 24 -233 139 -185 67
28 96 125 53 179 -38 48 -95 67 -145 46z"/>
<path d="M9753 16595 c-33 -14 -63 -59 -63 -95 0 -31 29 -76 57 -89 52 -24
115 -5 139 40 46 90 -41 183 -133 144z"/>
<path d="M4560 16564 c0 -8 5 -12 10 -9 6 3 10 10 10 16 0 5 -4 9 -10 9 -5 0
-10 -7 -10 -16z"/>
<path d="M26672 16452 c-34 -10 -90 -59 -108 -94 -25 -48 -15 -136 20 -182 15
-20 41 -43 58 -52 40 -21 125 -21 164 -1 77 40 115 141 83 224 -30 80 -131
129 -217 105z"/>
<path d="M8247 16430 c-75 -59 -7 -172 81 -134 37 15 57 52 48 89 -15 61 -79
84 -129 45z"/>
<path d="M5116 16403 c-4 -9 0 -23 9 -32 13 -14 17 -14 31 1 9 9 14 24 11 32
-8 21 -43 20 -51 -1z"/>
<path d="M32160 16362 c-38 -20 -80 -89 -80 -131 0 -36 36 -103 68 -126 20
-15 43 -20 90 -20 61 0 65 1 102 41 52 56 61 108 28 171 -39 77 -130 106 -208
65z"/>
<path d="M6970 16340 c-24 -24 -25 -48 -4 -78 23 -34 84 -28 102 10 30 64 -48
118 -98 68z"/>
<path d="M5925 16330 c-15 -17 -16 -24 -7 -45 20 -43 82 -28 82 20 0 45 -44
59 -75 25z"/>
<path d="M36680 15980 c0 -5 5 -10 10 -10 6 0 10 5 10 10 0 6 -4 10 -10 10 -5
0 -10 -4 -10 -10z"/>
<path d="M35830 15913 c-53 -20 -79 -85 -55 -136 44 -93 185 -64 185 38 0 47
-13 71 -50 90 -30 15 -53 18 -80 8z"/>
<path d="M17255 15896 c-114 -51 -132 -198 -35 -280 95 -79 246 -17 263 110
16 121 -116 220 -228 170z"/>
<path d="M36195 15899 c-77 -44 -51 -149 37 -149 41 0 78 36 78 76 0 51 -72
97 -115 73z"/>
<path d="M19215 15878 c-65 -23 -105 -81 -105 -153 0 -122 123 -199 229 -143
66 34 86 67 86 141 0 75 -27 120 -89 148 -46 21 -77 22 -121 7z"/>
<path d="M36690 15881 c0 -34 -26 -52 -58 -40 -47 18 -84 -29 -55 -70 16 -24
55 -28 72 -7 6 7 22 11 35 9 30 -6 42 16 42 72 -1 30 -5 41 -18 43 -10 2 -18
-1 -18 -7z"/>
<path d="M36426 15859 c-33 -26 -34 -68 -3 -97 30 -28 68 -28 95 1 29 30 28
62 -3 92 -30 30 -54 31 -89 4z"/>
<path d="M35313 15853 c-12 -2 -34 -18 -48 -34 -56 -68 -13 -172 71 -172 53 0
91 26 105 73 23 77 -46 148 -128 133z"/>
<path d="M15301 15813 c-70 -35 -94 -136 -48 -204 78 -116 257 -60 257 80 0
108 -109 173 -209 124z"/>
<path d="M4825 15809 c-10 -15 3 -25 16 -12 7 7 7 13 1 17 -6 3 -14 1 -17 -5z"/>
<path d="M21120 15760 c-75 -14 -135 -73 -145 -144 -27 -179 192 -280 312
-143 56 64 56 160 1 223 -49 56 -104 77 -168 64z"/>
<path d="M13420 15712 c-42 -21 -80 -75 -80 -114 0 -36 21 -89 43 -107 59 -48
143 -43 195 13 59 65 39 170 -41 207 -52 23 -73 24 -117 1z"/>
<path d="M34573 15694 c-43 -21 -64 -56 -65 -108 -1 -53 14 -81 55 -106 59
-36 147 -15 178 41 6 13 12 39 12 59 0 100 -91 158 -180 114z"/>
<path d="M27835 15611 c-104 -47 -138 -177 -70 -266 35 -46 79 -68 140 -68
189 -2 244 255 70 334 -51 23 -89 23 -140 0z"/>
<path d="M5404 15585 c-8 -19 3 -35 26 -35 19 0 34 25 24 41 -8 14 -44 10 -50
-6z"/>
<path d="M11633 15581 c-55 -34 -69 -92 -37 -152 16 -32 68 -60 100 -54 10 2
25 4 32 4 8 1 27 15 43 32 87 93 -30 238 -138 170z"/>
<path d="M30564 15586 c-80 -35 -115 -144 -72 -226 26 -50 89 -90 143 -90 54
0 117 40 143 90 73 141 -68 289 -214 226z"/>
<path d="M10004 15489 c-33 -17 -57 -65 -50 -103 20 -104 169 -108 191 -4 18
79 -67 142 -141 107z"/>
<path d="M6227 15463 c-4 -3 -7 -19 -7 -34 0 -22 6 -30 25 -35 43 -11 73 34
43 64 -13 13 -50 16 -61 5z"/>
<path d="M22844 15449 c-48 -14 -101 -79 -109 -132 -9 -57 19 -124 66 -157 49
-36 133 -39 178 -8 53 36 74 71 78 130 5 71 -25 124 -87 156 -47 23 -75 26
-126 11z"/>
<path d="M8532 15407 c-47 -50 -15 -127 51 -127 69 0 101 77 52 125 -31 32
-74 33 -103 2z"/>
<path d="M7284 15412 c-60 -41 -15 -130 53 -106 59 20 41 114 -22 114 -11 0
-25 -4 -31 -8z"/>
<path d="M33644 15391 c-45 -27 -64 -59 -64 -107 0 -47 25 -86 70 -109 37 -19
64 -19 107 2 87 41 87 175 -1 217 -45 21 -74 20 -112 -3z"/>
<path d="M36635 15120 c-3 -5 -1 -10 4 -10 6 0 11 5 11 10 0 6 -2 10 -4 10 -3
0 -8 -4 -11 -10z"/>
<path d="M5136 15051 c-4 -5 -2 -12 3 -15 5 -4 12 -2 15 3 4 5 2 12 -3 15 -5
4 -12 2 -15 -3z"/>
<path d="M24379 14977 c-74 -39 -111 -138 -81 -217 15 -39 70 -87 111 -98 76
-19 141 3 188 65 24 31 28 46 28 98 0 52 -4 67 -29 99 -32 42 -94 75 -142 76
-17 0 -51 -10 -75 -23z"/>
<path d="M32485 14951 c-137 -61 -94 -261 56 -261 111 0 177 120 116 211 -40
59 -108 79 -172 50z"/>
<path d="M36574 14939 c-9 -15 11 -33 30 -26 9 4 13 13 10 22 -7 17 -30 20
-40 4z"/>
<path d="M36470 14805 c-10 -12 -10 -18 0 -30 20 -25 55 -15 55 15 0 30 -35
40 -55 15z"/>
<path d="M5727 14777 c-8 -21 8 -39 29 -35 27 5 25 42 -2 46 -12 2 -24 -3 -27
-11z"/>
<path d="M36306 14714 c-9 -8 -16 -22 -16 -29 0 -7 7 -21 16 -29 30 -30 74
-13 74 29 0 42 -44 59 -74 29z"/>
<path d="M36050 14640 c-25 -25 -26 -62 -2 -83 39 -35 102 -9 102 41 0 28 -34
62 -60 62 -11 0 -29 -9 -40 -20z"/>
<path d="M28775 14601 c-50 -30 -68 -58 -72 -108 -13 -152 167 -215 260 -91
25 33 25 108 0 150 -36 62 -128 86 -188 49z"/>
<path d="M6562 14588 c-15 -15 -16 -55 -1 -63 21 -14 59 5 59 28 0 24 -17 47
-35 47 -6 0 -16 -5 -23 -12z"/>
<path d="M35690 14550 c-25 -25 -26 -72 -2 -93 37 -33 95 -22 110 21 24 69
-57 123 -108 72z"/>
<path d="M7594 14455 c-13 -13 -24 -29 -24 -35 0 -6 11 -22 24 -35 20 -19 30
-23 48 -16 33 12 51 50 35 75 -23 34 -55 39 -83 11z"/>
<path d="M35185 14428 c-32 -38 -29 -81 11 -115 38 -34 86 -31 118 8 28 33 32
59 14 92 -17 34 -39 46 -80 47 -29 0 -42 -7 -63 -32z"/>
<path d="M8844 14398 c-65 -31 -41 -128 31 -128 64 0 90 79 39 119 -30 23 -39
24 -70 9z"/>
<path d="M13484 14366 c-84 -84 -14 -222 103 -203 79 13 122 98 88 171 -21 44
-59 66 -116 66 -33 0 -47 -6 -75 -34z"/>
<path d="M10270 14383 c-92 -35 -73 -173 24 -173 78 0 119 92 65 146 -26 24
-65 36 -89 27z"/>
<path d="M11834 14380 c-59 -23 -82 -105 -43 -154 57 -73 179 -32 179 60 0 64
-77 117 -136 94z"/>
<path d="M15301 14376 c-127 -42 -90 -238 44 -238 99 0 157 104 105 189 -32
53 -86 71 -149 49z"/>
<path d="M17093 14324 c-101 -51 -99 -210 4 -259 44 -21 110 -16 146 11 79 59
79 179 0 238 -35 26 -109 31 -150 10z"/>
<path d="M25756 14330 c-85 -26 -124 -139 -76 -218 26 -42 92 -73 140 -66 145
23 178 206 50 272 -47 23 -67 26 -114 12z"/>
<path d="M31090 14308 c-60 -41 -75 -98 -44 -164 20 -43 59 -64 116 -64 50 0
82 19 103 60 42 82 -7 177 -95 187 -36 4 -52 0 -80 -19z"/>
<path d="M5490 14310 c0 -5 5 -10 11 -10 5 0 7 5 4 10 -3 6 -8 10 -11 10 -2 0
-4 -4 -4 -10z"/>
<path d="M34574 14270 c-31 -12 -54 -49 -54 -85 1 -71 85 -110 143 -65 49 39
42 116 -14 145 -31 17 -44 18 -75 5z"/>
<path d="M36515 14270 c3 -5 8 -10 11 -10 2 0 4 5 4 10 0 6 -5 10 -11 10 -5 0
-7 -4 -4 -10z"/>
<path d="M18895 14181 c-45 -20 -69 -59 -73 -120 -4 -54 -2 -60 28 -94 65 -75
161 -68 222 14 17 23 23 55 19 107 0 12 -16 39 -34 59 -30 32 -40 36 -88 39
-30 2 -63 0 -74 -5z"/>
<path d="M36396 14022 c-3 -6 -1 -14 5 -17 15 -10 25 3 12 16 -7 7 -13 7 -17
1z"/>
<path d="M33714 13986 c-42 -42 -47 -100 -11 -141 66 -75 187 -32 187 67 0 55
-51 108 -105 108 -29 0 -45 -8 -71 -34z"/>
<path d="M6090 13975 c0 -21 30 -31 40 -14 11 17 3 29 -21 29 -10 0 -19 -7
-19 -15z"/>
<path d="M20610 13942 c-140 -70 -86 -282 71 -282 89 0 154 72 146 161 -9 109
-119 171 -217 121z"/>
<path d="M36206 13804 c-4 -10 -2 -22 3 -27 15 -15 46 -3 46 18 0 26 -40 33
-49 9z"/>
<path d="M6916 13725 c-20 -21 -5 -55 25 -55 24 0 36 27 22 48 -14 23 -29 25
-47 7z"/>
<path d="M35962 13631 c-21 -13 -11 -55 14 -59 30 -4 48 21 34 47 -11 22 -27
26 -48 12z"/>
<path d="M32730 13619 c-64 -26 -80 -107 -32 -159 46 -50 117 -45 156 12 53
76 -37 183 -124 147z"/>
<path d="M5890 13600 c0 -5 5 -10 10 -10 6 0 10 5 10 10 0 6 -4 10 -10 10 -5
0 -10 -4 -10 -10z"/>
<path d="M22224 13566 c-91 -41 -109 -166 -33 -230 58 -49 145 -43 193 14 32
38 40 78 26 129 -20 74 -116 119 -186 87z"/>
<path d="M26887 13555 c-21 -7 -44 -19 -53 -26 -54 -45 -59 -157 -9 -209 105
-110 279 -16 251 134 -7 37 -73 105 -104 107 -9 0 -24 2 -33 4 -8 1 -32 -3
-52 -10z"/>
<path d="M29524 13560 c-31 -13 -72 -66 -80 -105 -8 -45 25 -114 67 -139 39
-23 101 -23 142 1 90 52 85 192 -10 238 -34 16 -86 19 -119 5z"/>
<path d="M7930 13530 c-23 -23 -25 -40 -7 -62 19 -24 43 -28 66 -12 23 17 28
56 9 71 -28 21 -49 22 -68 3z"/>
<path d="M35602 13458 c-7 -7 -12 -24 -12 -38 0 -34 17 -50 52 -50 37 0 57 38
40 75 -13 27 -58 35 -80 13z"/>
<path d="M9130 13380 c-44 -44 -8 -108 57 -101 20 2 43 32 43 57 0 29 -33 64
-60 64 -11 0 -29 -9 -40 -20z"/>
<path d="M10482 13267 c-44 -47 -19 -121 45 -133 27 -5 37 -1 63 24 35 36 38
69 9 106 -27 35 -86 36 -117 3z"/>
<path d="M35140 13265 c-18 -22 -15 -66 6 -82 54 -39 116 17 84 78 -13 23 -72
26 -90 4z"/>
<path d="M6497 13224 c-14 -15 -6 -34 14 -34 14 0 19 5 17 17 -3 18 -20 27
-31 17z"/>
<path d="M12000 13188 c-69 -37 -58 -144 17 -163 59 -15 121 45 108 105 -12
54 -76 83 -125 58z"/>
<path d="M36146 13141 c-4 -5 -2 -12 3 -15 5 -4 12 -2 15 3 4 5 2 12 -3 15 -5
4 -12 2 -15 -3z"/>
<path d="M31494 13111 c-29 -18 -54 -63 -54 -98 0 -29 31 -79 59 -96 40 -23
82 -21 122 6 124 83 1 266 -127 188z"/>
<path d="M13569 13081 c-55 -56 -26 -159 50 -176 82 -18 157 75 120 148 -19
38 -51 57 -97 57 -35 0 -49 -6 -73 -29z"/>
<path d="M23677 13076 c-66 -24 -97 -66 -97 -133 0 -105 114 -174 210 -125
110 55 90 229 -29 262 -43 12 -37 12 -84 -4z"/>
<path d="M34563 13065 c-48 -20 -57 -65 -22 -109 15 -19 30 -26 54 -26 24 0
39 7 54 26 24 31 26 43 10 78 -16 34 -57 47 -96 31z"/>
<path d="M15238 12961 c-28 -25 -33 -36 -33 -76 0 -40 5 -51 33 -76 81 -73
206 3 172 105 -25 78 -111 101 -172 47z"/>
<path d="M7300 12894 c-11 -12 -10 -18 3 -32 16 -15 18 -15 34 0 13 14 14 20
3 32 -7 9 -16 16 -20 16 -4 0 -13 -7 -20 -16z"/>
<path d="M35880 12845 c0 -21 30 -31 40 -14 11 17 3 29 -21 29 -10 0 -19 -7
-19 -15z"/>
<path d="M16964 12838 c-17 -4 -43 -19 -57 -34 -51 -50 -47 -124 9 -174 50
-43 111 -43 159 3 95 87 13 239 -111 205z"/>
<path d="M33824 12787 c-47 -26 -56 -69 -23 -111 27 -34 71 -35 104 -1 14 13
25 31 25 39 0 28 -23 66 -44 73 -34 11 -42 11 -62 0z"/>
<path d="M27825 12671 c-90 -39 -96 -174 -10 -215 45 -22 76 -20 116 7 48 32
67 89 46 139 -8 20 -26 44 -40 53 -31 20 -85 28 -112 16z"/>
<path d="M8286 12634 c-9 -8 -16 -22 -16 -29 0 -7 7 -21 16 -29 30 -30 74 -13
74 29 0 42 -44 59 -74 29z"/>
<path d="M18614 12596 c-94 -41 -99 -168 -8 -211 41 -19 58 -19 100 1 70 34
86 121 32 178 -38 40 -80 51 -124 32z"/>
<path d="M35546 12583 c-4 -9 0 -23 9 -32 13 -14 17 -14 30 0 19 19 10 49 -15
49 -10 0 -21 -8 -24 -17z"/>
<path d="M6936 12502 c-3 -6 -1 -14 5 -17 15 -10 25 3 12 16 -7 7 -13 7 -17 1z"/>
<path d="M30132 12484 c-100 -42 -73 -194 35 -194 48 0 81 22 99 66 12 29 12
39 1 67 -26 61 -79 85 -135 61z"/>
<path d="M32913 12450 c-31 -13 -56 -65 -48 -101 8 -37 49 -69 87 -69 41 0 88
48 88 90 0 22 -9 41 -29 61 -30 29 -58 35 -98 19z"/>
<path d="M24932 12434 c-81 -41 -82 -168 -2 -209 50 -26 95 -19 138 19 33 31
37 39 37 85 0 43 -5 55 -31 82 -38 38 -94 47 -142 23z"/>
<path d="M9460 12417 c-14 -7 -26 -23 -28 -36 -4 -26 23 -61 48 -61 9 0 25 9
34 19 38 41 -5 102 -54 78z"/>
<path d="M35112 12338 c-18 -18 -15 -56 6 -66 9 -6 27 -6 40 -1 38 14 24 79
-18 79 -9 0 -21 -5 -28 -12z"/>
<path d="M20159 12261 c-33 -33 -39 -45 -39 -81 0 -76 52 -130 125 -130 20 0
49 7 65 16 37 22 60 64 60 109 0 73 -54 125 -130 125 -36 0 -48 -6 -81 -39z"/>
<path d="M10740 12220 c-33 -33 -21 -93 23 -109 30 -11 75 6 83 32 13 39 13
46 -8 72 -24 31 -70 33 -98 5z"/>
<path d="M7714 12115 c-4 -9 -2 -21 4 -27 15 -15 44 -1 40 19 -4 23 -36 29
-44 8z"/>
<path d="M34566 12064 c-30 -30 -13 -74 29 -74 42 0 59 44 29 74 -8 9 -22 16
-29 16 -7 0 -21 -7 -29 -16z"/>
<path d="M12162 12037 c-44 -46 -16 -117 46 -119 43 -1 73 28 74 72 2 63 -76
94 -120 47z"/>
<path d="M31821 11984 c-28 -36 -27 -79 4 -109 50 -51 135 -17 135 54 0 76
-94 112 -139 55z"/>
<path d="M35522 11961 c2 -7 7 -12 11 -12 12 1 9 15 -3 20 -7 2 -11 -2 -8 -8z"/>
<path d="M13667 11870 c-54 -43 -39 -128 26 -149 62 -21 117 20 117 87 0 70
-85 107 -143 62z"/>
<path d="M21684 11870 c-56 -22 -80 -100 -50 -159 29 -55 114 -68 165 -25 95
80 1 231 -115 184z"/>
<path d="M7420 11840 c0 -5 5 -10 11 -10 5 0 7 5 4 10 -3 6 -8 10 -11 10 -2 0
-4 -4 -4 -10z"/>
<path d="M8663 11784 c-8 -22 10 -49 32 -49 10 0 22 7 28 16 15 24 1 49 -28
49 -15 0 -28 -7 -32 -16z"/>
<path d="M33888 11779 c-38 -22 -11 -109 33 -109 28 0 59 31 59 59 0 49 -49
75 -92 50z"/>
<path d="M28595 11771 c-40 -17 -60 -51 -60 -103 0 -43 4 -53 33 -79 47 -43
102 -41 148 5 28 28 34 42 34 76 0 34 -6 48 -34 76 -35 35 -75 43 -121 25z"/>
<path d="M26006 11719 c-44 -38 -56 -87 -32 -135 18 -38 69 -74 104 -74 38 0
92 30 107 61 62 119 -79 236 -179 148z"/>
<path d="M15240 11677 c-55 -28 -62 -108 -13 -147 58 -46 142 -6 143 67 0 63
-74 110 -130 80z"/>
<path d="M35105 11630 c-8 -14 3 -30 21 -30 8 0 14 9 14 20 0 21 -24 28 -35
10z"/>
<path d="M9774 11485 c-8 -33 12 -57 45 -53 22 3 26 8 26 38 0 32 -3 35 -32
38 -28 3 -33 -1 -39 -23z"/>
<path d="M30589 11471 c-76 -77 12 -197 108 -147 36 18 58 65 49 102 -19 74
-103 98 -157 45z"/>
<path d="M16785 11427 c-46 -46 -49 -95 -6 -138 44 -44 102 -43 144 2 57 62
24 155 -60 166 -39 5 -46 2 -78 -30z"/>
<path d="M33092 11439 c-35 -13 -48 -53 -28 -84 30 -45 106 -25 106 28 0 42
-40 70 -78 56z"/>
<path d="M8175 11401 c-6 -11 9 -23 19 -14 9 9 7 23 -3 23 -6 0 -12 -4 -16 -9z"/>
<path d="M23022 11377 c-33 -19 -62 -67 -62 -102 0 -37 31 -89 62 -106 30 -16
96 -13 126 7 32 21 55 79 48 119 -13 70 -114 117 -174 82z"/>
<path d="M34597 11314 c-12 -13 -8 -52 7 -57 8 -3 22 1 33 8 14 11 16 18 7 32
-12 19 -36 28 -47 17z"/>
<path d="M11022 11244 c-24 -17 -30 -65 -9 -81 41 -33 97 -12 97 36 0 29 -27
61 -51 61 -8 0 -25 -7 -37 -16z"/>
<path d="M35125 11160 c3 -5 8 -10 11 -10 2 0 4 5 4 10 0 6 -5 10 -11 10 -5 0
-7 -4 -4 -10z"/>
<path d="M18329 11131 c-21 -22 -29 -39 -29 -66 0 -44 45 -95 84 -95 54 0 106
46 106 94 0 29 -24 68 -51 82 -43 22 -77 17 -110 -15z"/>
<path d="M32124 11048 c-33 -15 -48 -55 -34 -89 23 -54 103 -59 130 -9 13 24
5 74 -13 88 -20 16 -61 21 -83 10z"/>
<path d="M9084 11015 c-4 -9 -2 -21 4 -27 16 -16 47 -5 47 17 0 26 -42 34 -51
10z"/>
<path d="M12383 10999 c-31 -11 -45 -42 -34 -72 24 -61 111 -43 111 22 0 41
-37 65 -77 50z"/>
<path d="M26967 10969 c-55 -32 -54 -129 3 -159 39 -21 86 -12 114 21 35 41
34 83 -3 120 -31 31 -79 38 -114 18z"/>
<path d="M33977 10974 c-13 -13 -7 -52 9 -58 22 -9 46 13 42 38 -3 21 -37 34
-51 20z"/>
<path d="M29250 10877 c-54 -28 -61 -99 -13 -137 36 -28 70 -25 104 9 35 35
37 71 7 105 -28 31 -65 40 -98 23z"/>
<path d="M19823 10800 c-62 -37 -73 -111 -24 -161 68 -67 181 -14 172 81 -4
40 -13 59 -35 73 -39 26 -78 29 -113 7z"/>
<path d="M24233 10781 c-78 -48 -39 -171 54 -171 49 0 93 45 93 95 0 27 -8 44
-29 66 -35 34 -72 37 -118 10z"/>
<path d="M34650 10764 c0 -8 5 -12 10 -9 6 4 8 11 5 16 -9 14 -15 11 -15 -7z"/>
<path d="M13800 10761 c-59 -16 -64 -99 -8 -130 57 -32 123 28 98 88 -9 22
-51 56 -63 50 -1 -1 -13 -4 -27 -8z"/>
<path d="M10152 10671 c-19 -11 -11 -45 11 -49 28 -6 49 16 36 39 -10 20 -26
24 -47 10z"/>
<path d="M33238 10629 c-26 -14 -23 -65 3 -79 16 -9 26 -8 45 5 30 19 31 49 2
69 -26 19 -27 19 -50 5z"/>
<path d="M31022 10574 c-34 -23 -27 -83 11 -104 24 -13 30 -13 55 0 37 21 44
81 10 104 -12 9 -29 16 -38 16 -9 0 -26 -7 -38 -16z"/>
<path d="M15235 10475 c-39 -38 -32 -86 16 -110 46 -24 99 7 99 59 0 37 -7 49
-37 65 -33 17 -51 14 -78 -14z"/>
<path d="M34070 10379 c0 -25 33 -22 38 4 2 12 -3 17 -17 17 -15 0 -21 -6 -21
-21z"/>
<path d="M21225 10376 c-31 -13 -55 -51 -55 -87 0 -32 53 -79 89 -79 75 0 114
93 61 144 -33 32 -59 38 -95 22z"/>
<path d="M11333 10359 c-25 -9 -31 -47 -11 -67 19 -19 56 -14 68 9 21 38 -15
74 -57 58z"/>
<path d="M9545 10340 c-8 -14 3 -30 21 -30 8 0 14 9 14 20 0 21 -24 28 -35 10z"/>
<path d="M32388 10243 c-10 -3 -21 -16 -24 -30 -9 -34 16 -58 50 -49 21 5 26
12 26 36 0 31 -22 49 -52 43z"/>
<path d="M27784 10230 c-30 -12 -54 -49 -54 -83 0 -39 49 -87 88 -87 91 0 117
139 32 169 -38 13 -38 13 -66 1z"/>
<path d="M16720 10208 c-54 -20 -68 -91 -25 -133 71 -72 178 28 115 107 -22
29 -56 39 -90 26z"/>
<path d="M25323 10183 c-34 -7 -63 -50 -63 -95 0 -50 37 -88 87 -88 45 0 69
14 89 51 37 72 -30 149 -113 132z"/>
<path d="M29787 10062 c-44 -49 -15 -122 49 -122 67 0 99 73 51 118 -28 27
-78 29 -100 4z"/>
<path d="M12608 10052 c-20 -4 -32 -34 -23 -61 11 -34 70 -34 80 0 14 42 -14
71 -57 61z"/>
<path d="M33394 10005 c-4 -10 -1 -21 7 -26 20 -12 34 -5 34 17 0 24 -33 31
-41 9z"/>
<path d="M10553 9934 c-9 -23 13 -40 32 -24 12 10 13 16 4 26 -15 18 -28 18
-36 -2z"/>
<path d="M22488 9905 c-46 -26 -55 -102 -16 -141 61 -61 158 -17 158 71 0 36
-50 85 -87 85 -15 -1 -40 -7 -55 -15z"/>
<path d="M18153 9868 c-46 -22 -47 -90 -1 -122 30 -21 50 -20 82 5 19 15 26
30 26 54 0 24 -7 39 -26 54 -29 23 -48 25 -81 9z"/>
<path d="M31376 9809 c-17 -25 -9 -56 20 -76 43 -28 90 28 64 76 -15 28 -64
28 -84 0z"/>
<path d="M10055 9760 c4 -6 11 -8 16 -5 14 9 11 15 -7 15 -8 0 -12 -5 -9 -10z"/>
<path d="M13916 9738 c-23 -32 -20 -54 10 -77 55 -43 128 35 76 82 -26 24 -68
21 -86 -5z"/>
<path d="M32604 9615 c-10 -25 4 -45 30 -45 25 0 39 20 30 45 -4 8 -17 15 -30
15 -14 0 -27 -7 -30 -15z"/>
<path d="M33560 9610 c0 -5 5 -10 10 -10 6 0 10 5 10 10 0 6 -4 10 -10 10 -5
0 -10 -4 -10 -10z"/>
<path d="M11670 9575 c-19 -23 -8 -50 20 -50 18 0 26 6 28 22 4 29 -30 49 -48
28z"/>
<path d="M26246 9519 c-17 -14 -26 -30 -26 -50 0 -65 80 -93 119 -43 27 35 26
59 -4 89 -30 30 -54 31 -89 4z"/>
<path d="M19532 9513 c-7 -3 -19 -18 -28 -35 -30 -58 6 -118 71 -118 48 1 88
44 80 86 -2 10 -4 22 -4 26 -1 4 -11 16 -23 28 -21 19 -66 25 -96 13z"/>
<path d="M28466 9488 c-21 -30 -20 -61 2 -81 38 -34 102 -8 102 42 0 56 -73
83 -104 39z"/>
<path d="M15302 9434 c-32 -22 -30 -71 3 -86 60 -27 107 49 53 86 -12 9 -25
16 -28 16 -3 0 -16 -7 -28 -16z"/>
<path d="M23652 9374 c-16 -11 -22 -25 -22 -54 0 -44 26 -70 71 -70 30 0 69
40 69 70 0 10 -9 29 -21 44 -24 30 -63 34 -97 10z"/>
<path d="M30287 9352 c-24 -26 -21 -49 7 -67 34 -23 66 -5 66 35 0 45 -44 64
-73 32z"/>
<path d="M11010 9320 c0 -5 5 -10 10 -10 6 0 10 5 10 10 0 6 -4 10 -10 10 -5
0 -10 -4 -10 -10z"/>
<path d="M12867 9224 c-12 -13 -8 -52 7 -57 21 -8 49 16 44 39 -3 19 -38 31
-51 18z"/>
<path d="M31716 9204 c-9 -22 17 -49 39 -40 10 3 15 15 13 28 -4 29 -42 37
-52 12z"/>
<path d="M32855 9201 c-3 -5 -1 -12 5 -16 5 -3 10 1 10 9 0 18 -6 21 -15 7z"/>
<path d="M16657 9112 c-37 -41 -7 -104 50 -104 29 0 63 33 63 61 0 9 -7 27
-16 39 -19 28 -74 30 -97 4z"/>
<path d="M20837 9082 c-23 -25 -21 -68 3 -92 26 -26 51 -25 84 1 29 23 33 54
10 87 -19 28 -74 30 -97 4z"/>
<path d="M27090 8933 c-46 -16 -54 -81 -13 -112 30 -24 58 -20 86 11 24 28 21
55 -8 83 -24 25 -36 28 -65 18z"/>
<path d="M12060 8909 c0 -14 5 -19 17 -17 26 5 29 38 4 38 -15 0 -21 -6 -21
-21z"/>
<path d="M14122 8892 c-21 -14 -22 -49 -2 -67 37 -33 84 10 60 55 -11 21 -35
26 -58 12z"/>
<path d="M29092 8883 c-25 -10 -34 -53 -17 -79 30 -46 95 -24 95 31 0 44 -34
66 -78 48z"/>
<path d="M24691 8844 c-12 -15 -21 -34 -21 -44 0 -10 9 -29 21 -44 40 -50 119
-24 119 40 0 69 -78 101 -119 48z"/>
<path d="M30738 8803 c-22 -6 -33 -40 -18 -58 24 -29 70 -11 70 27 0 20 -27
36 -52 31z"/>
<path d="M32032 8783 c2 -10 10 -18 18 -18 8 0 16 8 18 18 2 12 -3 17 -18 17
-15 0 -20 -5 -18 -17z"/>
<path d="M18010 8759 c-17 -30 -8 -62 21 -78 24 -13 29 -13 53 2 27 18 33 45
16 78 -15 27 -75 26 -90 -2z"/>
<path d="M22051 8654 c-12 -15 -21 -35 -21 -46 0 -24 44 -68 68 -68 33 0 72
38 72 71 0 65 -80 93 -119 43z"/>
<path d="M15414 8552 c-18 -12 -23 -39 -10 -57 25 -35 83 6 60 43 -13 19 -34
26 -50 14z"/>
<path d="M13190 8530 c0 -15 5 -20 18 -18 9 2 17 10 17 18 0 8 -8 16 -17 18
-13 2 -18 -3 -18 -18z"/>
<path d="M12515 8420 c-3 -5 1 -10 10 -10 9 0 13 5 10 10 -3 6 -8 10 -10 10
-2 0 -7 -4 -10 -10z"/>
<path d="M19316 8408 c-21 -30 -20 -54 4 -78 39 -39 100 -14 100 42 0 53 -74
79 -104 36z"/>
<path d="M31135 8380 c-11 -17 5 -32 21 -19 7 6 11 15 8 20 -7 12 -21 11 -29
-1z"/>
<path d="M27820 8362 c-38 -31 -4 -84 43 -66 25 9 31 43 11 65 -21 23 -26 24
-54 1z"/>
<path d="M29636 8345 c-9 -24 4 -45 29 -45 27 0 36 17 23 43 -11 21 -44 23
-52 2z"/>
<path d="M25650 8330 c-23 -23 -24 -33 -10 -61 12 -22 59 -26 78 -7 19 19 14
55 -10 72 -29 20 -34 20 -58 -4z"/>
<path d="M16688 8204 c-14 -31 -1 -57 31 -62 28 -4 51 14 51 42 0 50 -62 65
-82 20z"/>
<path d="M23198 8219 c-28 -16 -24 -76 5 -85 29 -10 49 -6 65 14 17 22 15 39
-8 62 -22 22 -37 24 -62 9z"/>
<path d="M14371 8187 c-17 -21 -3 -49 23 -45 15 2 21 10 21 28 0 28 -26 38
-44 17z"/>
<path d="M31520 8150 c0 -5 5 -10 10 -10 6 0 10 5 10 10 0 6 -4 10 -10 10 -5
0 -10 -4 -10 -10z"/>
<path d="M20578 8039 c-33 -19 -12 -89 26 -89 37 0 61 48 40 79 -16 23 -39 26
-66 10z"/>
<path d="M13580 8020 c0 -5 5 -10 10 -10 6 0 10 5 10 10 0 6 -4 10 -10 10 -5
0 -10 -4 -10 -10z"/>
<path d="M30150 7980 c-18 -11 -4 -42 17 -38 10 2 19 10 21 19 4 19 -19 31
-38 19z"/>
<path d="M28485 7916 c-20 -15 -17 -44 7 -59 12 -8 21 -7 32 2 36 30 -1 85
-39 57z"/>
<path d="M26496 7874 c-25 -25 -20 -63 10 -76 48 -22 91 35 54 72 -24 24 -43
25 -64 4z"/>
<path d="M17977 7874 c-15 -15 -7 -53 13 -59 27 -8 52 12 48 39 -3 21 -46 35
-61 20z"/>
<path d="M15590 7835 c-15 -18 -5 -35 21 -35 12 0 19 7 19 19 0 24 -25 34 -40
16z"/>
<path d="M24228 7798 c-42 -34 -16 -103 34 -91 25 6 48 30 48 50 0 17 -36 53
-53 53 -7 0 -20 -6 -29 -12z"/>
<path d="M21748 7669 c-36 -20 -12 -89 31 -89 10 0 25 8 34 18 42 47 -10 103
-65 71z"/>
<path d="M14696 7661 c-3 -5 1 -14 8 -20 16 -13 32 2 21 19 -8 12 -22 13 -29
1z"/>
<path d="M29095 7570 c-4 -6 -3 -16 3 -22 6 -6 12 -6 17 2 4 6 3 16 -3 22 -6
6 -12 6 -17 -2z"/>
<path d="M19216 7544 c-9 -8 -16 -22 -16 -29 0 -7 7 -21 16 -29 8 -9 22 -16
29 -16 7 0 21 7 29 16 9 8 16 22 16 29 0 7 -7 21 -16 29 -8 9 -22 16 -29 16
-7 0 -21 -7 -29 -16z"/>
<path d="M16804 7506 c-10 -26 4 -48 28 -44 17 2 23 10 23 28 0 18 -6 26 -23
28 -13 2 -25 -3 -28 -12z"/>
<path d="M27281 7480 c-19 -11 -9 -45 14 -45 13 0 21 8 23 21 3 23 -17 37 -37
24z"/>
<path d="M25183 7402 c-18 -11 -19 -43 -2 -55 35 -23 67 21 37 51 -14 14 -19
14 -35 4z"/>
<path d="M29660 7370 c0 -5 5 -10 10 -10 6 0 10 5 10 10 0 6 -4 10 -10 10 -5
0 -10 -4 -10 -10z"/>
<path d="M15850 7310 c0 -5 5 -10 10 -10 6 0 10 5 10 10 0 6 -4 10 -10 10 -5
0 -10 -4 -10 -10z"/>
<path d="M22847 7303 c-15 -15 -6 -52 14 -58 28 -9 53 16 44 44 -6 20 -43 29
-58 14z"/>
<path d="M20417 7213 c-13 -12 -7 -44 9 -50 23 -9 48 25 33 44 -12 14 -32 17
-42 6z"/>
<path d="M18023 7184 c-8 -21 13 -42 28 -27 13 13 5 43 -11 43 -6 0 -13 -7
-17 -16z"/>
<path d="M27983 7184 c-8 -21 13 -42 28 -27 13 13 5 43 -11 43 -6 0 -13 -7
-17 -16z"/>
<path d="M26034 7065 c-4 -9 0 -23 8 -31 20 -20 50 -7 46 20 -4 26 -45 35 -54
11z"/>
<path d="M17005 7001 c-7 -12 12 -24 25 -16 11 7 4 25 -10 25 -5 0 -11 -4 -15
-9z"/>
<path d="M23872 6986 c-20 -26 -21 -35 -7 -49 27 -28 73 1 59 37 -7 19 -41 27
-52 12z"/>
<path d="M21541 6903 c-13 -26 1 -45 30 -41 18 2 24 9 24 28 0 32 -39 41 -54
13z"/>
<path d="M19204 6896 c-9 -24 4 -48 23 -44 12 2 18 12 18 28 0 29 -32 41 -41
16z"/>
<path d="M26850 6820 c0 -5 5 -10 10 -10 6 0 10 5 10 10 0 6 -4 10 -10 10 -5
0 -10 -4 -10 -10z"/>
<path d="M18170 6720 c0 -5 5 -10 11 -10 5 0 7 5 4 10 -3 6 -8 10 -11 10 -2 0
-4 -4 -4 -10z"/>
<path d="M24825 6710 c-4 -6 -3 -16 3 -22 6 -6 12 -6 17 2 4 6 3 16 -3 22 -6
6 -12 6 -17 -2z"/>
<path d="M22625 6631 c-7 -12 12 -24 25 -16 11 7 4 25 -10 25 -5 0 -11 -4 -15
-9z"/>
<path d="M20365 6619 c-10 -15 3 -25 16 -12 7 7 7 13 1 17 -6 3 -14 1 -17 -5z"/>
<path d="M25707 6524 c-8 -8 1 -24 14 -24 5 0 9 7 9 15 0 15 -12 20 -23 9z"/>
<path d="M19305 6479 c-10 -15 3 -25 16 -12 7 7 7 13 1 17 -6 3 -14 1 -17 -5z"/>
<path d="M23630 6416 c0 -8 4 -17 9 -20 11 -7 33 18 24 27 -12 12 -33 7 -33
-7z"/>
<path d="M21466 6403 c-12 -12 -6 -33 9 -33 8 0 15 6 15 14 0 17 -14 28 -24
19z"/>
</g>
</svg>
