<?xml version='1.0' encoding='iso-8859-1'?>
<!DOCTYPE svg PUBLIC '-//W3C//DTD SVG 1.1//EN' 'http://www.w3.org/Graphics/SVG/1.1/DTD/svg11.dtd'>
<svg version="1.1" xmlns="http://www.w3.org/2000/svg" viewBox="0 0 512.002 512.002" xmlns:xlink="http://www.w3.org/1999/xlink" enable-background="new 0 0 512.002 512.002">
  <g>
    <path d="m511.273,201.227c-3.188-14.719-16.211-25.227-31.273-25.227h-176-47.999v-32h31.999c17.672,0 32-14.328 32-32s-14.328-32-32-32h-128c-17.672,0-32,14.328-32,32s14.328,32 32,32h32.001v32h-64.001c-11.985,0-22.309,6.67-27.791,16.426-1.392-0.186-2.768-0.426-4.209-0.426-52.938,0-96,43.063-96,96s43.063,96 96,96c1.441,0 2.817-0.24 4.209-0.426 5.482,9.756 15.806,16.426 27.791,16.426h176c17.672,0 32.001-14.328 32.001-32v-59.395l157.242-71.473c13.71-6.233 21.218-21.186 18.03-35.905zm-447.272,86.774c2.84217e-14-17.648 14-32 32-32v64c-18,0-32-14.352-32-32z"/>
    <path d="m435.102,310.54c-5.868,7.992-35.102,49.156-35.102,74.914 0,25.664 21.531,46.547 48,46.547 26.469,0 48-20.883 48-46.547 0-25.758-29.234-66.922-35.102-74.914-6.015-8.219-19.781-8.219-25.796,5.68434e-14z"/>
  </g>
</svg>
